<?xml version="1.0" encoding="UTF-8"?> <svg xmlns="http://www.w3.org/2000/svg" id="Group_13249" data-name="Group 13249" width="538" height="300" viewBox="0 0 538 300"><rect id="Rectangle_67" data-name="Rectangle 67" width="538" height="300" fill="#002541"></rect><g id="Rectangle_4421" data-name="Rectangle 4421" transform="translate(45 60)" fill="none" stroke="#3882ba" stroke-width="1" stroke-dasharray="6 6"><rect width="448" height="213" rx="8" stroke="none"></rect><rect x="0.5" y="0.5" width="447" height="212" rx="7.5" fill="none"></rect></g><g id="Group_13243" data-name="Group 13243" transform="translate(24 -8)"><g id="Group_13242" data-name="Group 13242" transform="translate(-67 -70)"><g id="Rectangle_4418" data-name="Rectangle 4418" transform="translate(191 105)" fill="#002541" stroke="#285c83" stroke-width="1"><rect width="66" height="66" rx="6" stroke="none"></rect><rect x="0.5" y="0.5" width="65" height="65" rx="5.5" fill="none"></rect></g><g id="Group_13234" data-name="Group 13234" transform="translate(188.199 83.271)"><path id="Path_4469" data-name="Path 4469" d="M58.5,49.924A13.392,13.392,0,0,0,42.988,32.681a13.387,13.387,0,0,0-22.677,4.79,13.392,13.392,0,0,0-7.192,22.06,13.191,13.191,0,0,0,1.127,10.842,13.359,13.359,0,0,0,14.385,6.4,13.226,13.226,0,0,0,9.957,4.442A13.359,13.359,0,0,0,51.321,71.93,13.351,13.351,0,0,0,58.5,49.924ZM38.587,77.754a9.887,9.887,0,0,1-6.347-2.295l.309-.174L43.1,69.193a1.77,1.77,0,0,0,.872-1.5V52.809l4.455,2.576a.154.154,0,0,1,.081.121V67.824a9.939,9.939,0,0,1-9.916,9.93ZM17.265,68.642a9.848,9.848,0,0,1-1.181-6.656l.309.188,10.56,6.092a1.709,1.709,0,0,0,1.718,0l12.9-7.434v5.153a.165.165,0,0,1-.067.134L30.818,72.279A9.919,9.919,0,0,1,17.265,68.642ZM14.474,45.67a9.882,9.882,0,0,1,5.22-4.361V53.842a1.665,1.665,0,0,0,.859,1.489L33.38,62.738l-4.455,2.576a.171.171,0,0,1-.161,0L18.1,59.169A9.946,9.946,0,0,1,14.46,45.616v.054ZM51.12,54.177,38.238,46.7l4.455-2.563a.171.171,0,0,1,.161,0L53.522,50.3a9.919,9.919,0,0,1-1.5,17.887V55.653a1.782,1.782,0,0,0-.9-1.476Zm4.428-6.669-.309-.188L44.706,41.175a1.734,1.734,0,0,0-1.731,0L30.093,48.609V43.456a.136.136,0,0,1,.067-.134l10.668-6.146A9.928,9.928,0,0,1,55.575,47.455v.054Zm-27.9,9.125L23.2,54.07a.154.154,0,0,1-.081-.121V41.658a9.93,9.93,0,0,1,16.277-7.622l-.309.174L28.536,40.3a1.771,1.771,0,0,0-.872,1.5Zm2.415-5.22L35.809,48.1l5.757,3.314v6.615l-5.73,3.314L30.08,58.028l-.013-6.615Z" transform="translate(0 0)" fill="#fff" stroke="#002541" stroke-width="2" fill-rule="evenodd"></path></g></g><g id="Group_13241" data-name="Group 13241" transform="translate(-62 -70)"><g id="Rectangle_4419" data-name="Rectangle 4419" transform="translate(274 105)" fill="#002541" stroke="#285c83" stroke-width="1"><rect width="66" height="66" rx="6" stroke="none"></rect><rect x="0.5" y="0.5" width="65" height="65" rx="5.5" fill="none"></rect></g><g id="Midjourney_Emblem" transform="translate(119.083 919.347)"><path id="Path_4486" data-name="Path 4486" d="M255.689-803.65c-.346.354-.308.578.254,1.625a39.234,39.234,0,0,1,4.635,13.329,33.411,33.411,0,0,1,.038,5.066c-.454,5.305-2.287,10.141-4.943,13.082-.423.462-.5.7-.37,1.032.246.593.7.6,1.617.039a27.916,27.916,0,0,1,9.394-3.442,17.411,17.411,0,0,1,3.542-.185,21.776,21.776,0,0,1,5.236.431,34.429,34.429,0,0,1,5.86,1.617c.57.216,1.124.408,1.232.431a.753.753,0,0,0,.762-.439,8.21,8.21,0,0,0-.477-3.111,44.132,44.132,0,0,0-8.87-16.709,49.647,49.647,0,0,0-15.662-12.266C256.344-803.935,256.043-804,255.689-803.65Zm3.342,2.757a51.036,51.036,0,0,1,7.438,5.067,44.869,44.869,0,0,1,13.991,20.05,17.139,17.139,0,0,1,.778,3.165,4.765,4.765,0,0,1-.739-.208,35.919,35.919,0,0,0-7.253-1.648,30.759,30.759,0,0,0-6.63,0,27.182,27.182,0,0,0-6.884,1.9c-.462.2-.893.377-.955.408-.077.031-.062-.038.054-.223.254-.423,1.047-2.048,1.347-2.772a30.3,30.3,0,0,0,1.971-13.005,38.165,38.165,0,0,0-3.811-12.489c-.185-.37-.339-.693-.339-.716C258-801.44,258.115-801.387,259.031-800.894Z" transform="translate(-87.094)" fill="#fff"></path><path id="Path_4487" data-name="Path 4487" d="M444.37-732.877a.654.654,0,0,0-.37.662c0,.346.085.447.785.924a33.617,33.617,0,0,1,6.168,5.721c3.226,4.058,6.63,10.98,8.608,17.517a9.111,9.111,0,0,0,.516,1.409c.231.262.454.293,1.109.169a13.52,13.52,0,0,1,1.363-.162,7.129,7.129,0,0,1,3.272.77c1.378.554,1.709.554,1.933.015.131-.316.1-.454-.508-2.01a54.824,54.824,0,0,0-6.722-12.551c-.393-.531-1.386-1.771-1.509-1.886-.023-.023-.231-.246-.454-.5-4.42-4.866-8.786-8.416-11.943-9.7a9.38,9.38,0,0,0-1.886-.5A1,1,0,0,0,444.37-732.877Zm8.1,6.144c1.147.993,4.443,4.3,5.421,5.436a46.36,46.36,0,0,1,6.722,11.011c.539,1.209,1.1,2.579,1.1,2.687a2.618,2.618,0,0,1-.824-.208,4.259,4.259,0,0,0-1.948-.277c-.616-.008-1.27.008-1.455.031l-.339.031-.4-1.263a63.739,63.739,0,0,0-6.945-14.9c-.362-.554-.8-1.193-.97-1.424-.47-.616-1.7-2.094-1.894-2.264-.085-.085-.162-.177-.162-.216C450.776-728.172,451.2-727.833,452.47-726.732Z" transform="translate(-261.314 -65.399)" fill="#fff"></path><path id="Path_4488" data-name="Path 4488" d="M210.713-363.269c-.362.015-5.382.339-10.433.67-1.609.108-3.511.223-4.235.27s-2.033.131-2.926.193-2.241.146-3,.192-2.687.169-4.273.27-4.512.293-6.506.423-4.674.3-5.967.385-3.473.223-4.851.308c-3.719.223-3.681.216-3.85.739-.1.3-.038.462.947,2.31l.5.932-1.278.878c-2.071,1.424-2.818,1.84-3.3,1.84a.768.768,0,0,0-.416.223.667.667,0,0,0,.015,1.024c.223.223.254.231.731.193a6.77,6.77,0,0,0,2.911-1.417c2.348-1.617,2.934-1.948,3.434-1.948.37,0,.77.246,1.994,1.224a9.148,9.148,0,0,0,3.28,2,4.355,4.355,0,0,0,2.425.092,7.5,7.5,0,0,0,2.9-1.578c1.548-1.163,1.871-1.317,2.718-1.317.832,0,1.193.169,2.271,1.039a11,11,0,0,0,2.148,1.532,4.256,4.256,0,0,0,2.087.493c1.186-.008,2.187-.485,3.657-1.725,1.371-1.155,1.979-1.424,3.026-1.355a3.52,3.52,0,0,1,2.233,1.086c2.04,1.655,2.834,2.048,4.2,2.048,1.24,0,2.164-.416,3.773-1.709a14.49,14.49,0,0,1,1.632-1.155,2.05,2.05,0,0,1,1.27-.254,2.091,2.091,0,0,1,1.278.246,8.792,8.792,0,0,1,1.355.978c.47.4,1.024.855,1.224,1.016a3.9,3.9,0,0,0,2.8.878.819.819,0,0,0,.47-.755.881.881,0,0,0-.847-.708c-.647,0-1.116-.262-2.387-1.347-1.617-1.386-2.318-1.748-3.588-1.856-1.247-.116-2.341.346-4.035,1.7-1.625,1.3-2.364,1.609-3.4,1.424a3.589,3.589,0,0,1-1.278-.5c.015-.015.454-.239.986-.508,1.925-.962,4.9-2.649,6.16-3.488a58.922,58.922,0,0,0,5.12-3.85.859.859,0,0,0-.023-.87A1.036,1.036,0,0,0,210.713-363.269Zm-2.156,1.686c0,.069-2.11,1.578-3.049,2.194a63.235,63.235,0,0,1-7.053,3.827l-.431.177-.531-.408a4.534,4.534,0,0,0-4.42-.87,8.359,8.359,0,0,0-2.495,1.609,9.687,9.687,0,0,1-1.424.993,2.115,2.115,0,0,1-1.193.239c-1.024,0-1.424-.208-3.265-1.709-1.617-1.317-2.949-1.663-4.435-1.163a9.105,9.105,0,0,0-2.464,1.525,11.984,11.984,0,0,1-1.578,1.039,2.342,2.342,0,0,1-1.347.231,2.287,2.287,0,0,1-1.44-.285,9.306,9.306,0,0,1-2.256-1.532c-1.671-1.34-2.364-1.679-3.265-1.571l-.439.054-.431-.8a3.909,3.909,0,0,1-.377-.839c.046-.054,1.856-.185,6.091-.454,1.332-.085,4.312-.277,6.622-.424s5.529-.354,7.161-.462,3.8-.246,4.812-.308,3.457-.223,5.428-.346c4.689-.308,9.278-.608,10.433-.685C208.534-361.645,208.557-361.645,208.557-361.583Z" transform="translate(0 -406.655)" fill="#fff"></path></g></g><g id="Group_13240" data-name="Group 13240" transform="translate(-55 -70)"><g id="Rectangle_4420" data-name="Rectangle 4420" transform="translate(355 105)" fill="#002541" stroke="#285c83" stroke-width="1"><rect width="66" height="66" rx="6" stroke="none"></rect><rect x="0.5" y="0.5" width="65" height="65" rx="5.5" fill="none"></rect></g><path id="Path_4489" data-name="Path 4489" d="M-22.04,1.4a4.9,4.9,0,0,1-1.5-.211A3.476,3.476,0,0,1-24.773.472.824.824,0,0,1-25.09-.15a.662.662,0,0,1,.2-.475A.646.646,0,0,1-24.41-.83a.621.621,0,0,1,.4.141,3.454,3.454,0,0,0,.915.563A2.87,2.87,0,0,0-22.04.05a2.113,2.113,0,0,0,1.132-.293.85.85,0,0,0,.475-.727A.933.933,0,0,0-20.9-1.8a3.977,3.977,0,0,0-1.49-.452q-2.569-.375-2.569-2.393a2.162,2.162,0,0,1,.387-1.285,2.445,2.445,0,0,1,1.056-.833,3.736,3.736,0,0,1,1.49-.287,4.263,4.263,0,0,1,1.39.223,3.371,3.371,0,0,1,1.085.587.783.783,0,0,1,.34.622.662.662,0,0,1-.2.475.633.633,0,0,1-.469.205.515.515,0,0,1-.317-.106,3.1,3.1,0,0,0-.851-.452,2.819,2.819,0,0,0-.98-.205,2.018,2.018,0,0,0-1.144.276.838.838,0,0,0-.4.722.841.841,0,0,0,.416.763,3.951,3.951,0,0,0,1.308.422,6.785,6.785,0,0,1,1.613.452,2.059,2.059,0,0,1,.909.751,2.307,2.307,0,0,1,.305,1.261,2.106,2.106,0,0,1-.416,1.3A2.678,2.678,0,0,1-20.55,1.1,3.715,3.715,0,0,1-22.04,1.4Zm7.274-1.443a.39.39,0,0,1,.3.158.62.62,0,0,1,.135.416.627.627,0,0,1-.346.534,1.438,1.438,0,0,1-.78.217A2.274,2.274,0,0,1-16.684.971a1.45,1.45,0,0,1-.5-1.32V-3.587h-.54a.637.637,0,0,1-.469-.188.637.637,0,0,1-.188-.469.6.6,0,0,1,.188-.452.648.648,0,0,1,.469-.182h.54v-.751a.693.693,0,0,1,.205-.51.693.693,0,0,1,.51-.205.66.66,0,0,1,.493.205.7.7,0,0,1,.2.51v.751h.833a.637.637,0,0,1,.469.188.637.637,0,0,1,.188.469.6.6,0,0,1-.188.452.648.648,0,0,1-.469.182h-.833V-.408a.449.449,0,0,0,.129.358.52.52,0,0,0,.352.111,1.007,1.007,0,0,0,.258-.047A.7.7,0,0,1-14.766-.044Zm6.851-5.068a.684.684,0,0,1,.5.2.7.7,0,0,1,.2.516V.566a.7.7,0,0,1-.2.51.674.674,0,0,1-.5.205.664.664,0,0,1-.5-.2.738.738,0,0,1-.205-.5,2.407,2.407,0,0,1-.792.581,2.387,2.387,0,0,1-1.05.241A2.682,2.682,0,0,1-11.927.982,2.92,2.92,0,0,1-12.965-.173a3.606,3.606,0,0,1-.381-1.678,3.689,3.689,0,0,1,.375-1.684A2.884,2.884,0,0,1-11.945-4.7a2.613,2.613,0,0,1,1.437-.416,2.717,2.717,0,0,1,1.056.205,2.773,2.773,0,0,1,.833.522V-4.4a.7.7,0,0,1,.2-.51A.674.674,0,0,1-7.915-5.112ZM-10.285.108A1.567,1.567,0,0,0-9.041-.449a2.069,2.069,0,0,0,.481-1.4,2.092,2.092,0,0,0-.481-1.408,1.56,1.56,0,0,0-1.244-.563,1.547,1.547,0,0,0-1.232.563A2.092,2.092,0,0,0-12-1.851a2.085,2.085,0,0,0,.475,1.4A1.549,1.549,0,0,0-10.285.108Zm7.849-5.221A2.682,2.682,0,0,1-.97-4.7,2.92,2.92,0,0,1,.069-3.54,3.606,3.606,0,0,1,.45-1.863,3.689,3.689,0,0,1,.075-.179,2.884,2.884,0,0,1-.952.982,2.613,2.613,0,0,1-2.389,1.4,2.516,2.516,0,0,1-3.451,1.17,2.815,2.815,0,0,1-4.278.613v.07a.7.7,0,0,1-.2.51.674.674,0,0,1-.5.205.684.684,0,0,1-.5-.2.7.7,0,0,1-.2-.516V-6.684a.7.7,0,0,1,.2-.51.674.674,0,0,1,.5-.205.674.674,0,0,1,.5.205.7.7,0,0,1,.2.51v2.452a2.429,2.429,0,0,1,.786-.616A2.248,2.248,0,0,1-2.436-5.112ZM-2.612.108A1.547,1.547,0,0,0-1.38-.455,2.092,2.092,0,0,0-.9-1.863a2.085,2.085,0,0,0-.475-1.4,1.549,1.549,0,0,0-1.238-.557,1.567,1.567,0,0,0-1.244.557,2.069,2.069,0,0,0-.481,1.4A2.092,2.092,0,0,0-3.856-.455,1.56,1.56,0,0,0-2.612.108ZM2.949.566a.7.7,0,0,1-.2.51.674.674,0,0,1-.5.205.674.674,0,0,1-.5-.205.7.7,0,0,1-.2-.51V-4.279a.7.7,0,0,1,.2-.51.674.674,0,0,1,.5-.205.674.674,0,0,1,.5.205.7.7,0,0,1,.2.51ZM2.233-5.758a.932.932,0,0,1-.563-.129.551.551,0,0,1-.164-.458v-.223a.532.532,0,0,1,.176-.458.965.965,0,0,1,.563-.129.958.958,0,0,1,.575.129.551.551,0,0,1,.164.458v.223a.539.539,0,0,1-.17.463A1.024,1.024,0,0,1,2.233-5.758ZM5.917.566a.7.7,0,0,1-.716.716.66.66,0,0,1-.493-.205.7.7,0,0,1-.2-.51v-7.25a.693.693,0,0,1,.205-.51.693.693,0,0,1,.51-.205.66.66,0,0,1,.493.205.7.7,0,0,1,.2.51Zm2.968,0a.7.7,0,0,1-.2.51.722.722,0,0,1-1.009,0,.7.7,0,0,1-.2-.51V-4.279a.7.7,0,0,1,.2-.51.674.674,0,0,1,.5-.205.674.674,0,0,1,.5.205.7.7,0,0,1,.2.51ZM8.169-5.758a.932.932,0,0,1-.563-.129.551.551,0,0,1-.164-.458v-.223a.532.532,0,0,1,.176-.458.965.965,0,0,1,.563-.129.958.958,0,0,1,.575.129.551.551,0,0,1,.164.458v.223a.539.539,0,0,1-.17.463A1.024,1.024,0,0,1,8.169-5.758ZM13.355-.044a.39.39,0,0,1,.3.158.62.62,0,0,1,.135.416.627.627,0,0,1-.346.534,1.438,1.438,0,0,1-.78.217A2.274,2.274,0,0,1,11.437.971a1.45,1.45,0,0,1-.5-1.32V-3.587H10.4a.637.637,0,0,1-.469-.188.637.637,0,0,1-.188-.469A.6.6,0,0,1,9.929-4.7a.648.648,0,0,1,.469-.182h.54v-.751a.693.693,0,0,1,.205-.51.693.693,0,0,1,.51-.205.66.66,0,0,1,.493.205.7.7,0,0,1,.2.51v.751h.833a.637.637,0,0,1,.469.188.637.637,0,0,1,.188.469.6.6,0,0,1-.188.452.648.648,0,0,1-.469.182h-.833V-.408a.449.449,0,0,0,.129.358.52.52,0,0,0,.352.111,1.007,1.007,0,0,0,.258-.047A.7.7,0,0,1,13.355-.044Zm6.429-4.951a.674.674,0,0,1,.5.205.7.7,0,0,1,.2.51V.707a2.763,2.763,0,0,1-.821,2.223,3.274,3.274,0,0,1-2.194.7,5.322,5.322,0,0,1-.815-.065,3.058,3.058,0,0,1-.675-.17q-.575-.246-.575-.68a.6.6,0,0,1,.035-.188.727.727,0,0,1,.241-.393A.583.583,0,0,1,16.053,2a.7.7,0,0,1,.223.035q.082.035.287.117A2.958,2.958,0,0,0,17,2.285a2.107,2.107,0,0,0,.475.053A1.78,1.78,0,0,0,18.7,1.98,1.6,1.6,0,0,0,19.092.754V.636a2.288,2.288,0,0,1-1.9.763,2.024,2.024,0,0,1-1.079-.287,1.941,1.941,0,0,1-.727-.8,2.551,2.551,0,0,1-.258-1.167V-4.279a.7.7,0,0,1,.2-.51.674.674,0,0,1,.5-.205.674.674,0,0,1,.5.205.7.7,0,0,1,.2.51v3a1.461,1.461,0,0,0,.323,1.062A1.28,1.28,0,0,0,17.8.108a1.229,1.229,0,0,0,.944-.358,1.448,1.448,0,0,0,.334-1.027v-3a.7.7,0,0,1,.2-.51A.673.673,0,0,1,19.784-4.995ZM22.635,1.27a.707.707,0,0,1-.522-.182.707.707,0,0,1-.182-.522v-.2a.707.707,0,0,1,.182-.522.707.707,0,0,1,.522-.182h.153a.707.707,0,0,1,.522.182.707.707,0,0,1,.182.522v.2a.707.707,0,0,1-.182.522.707.707,0,0,1-.522.182Zm7.379-6.382a.684.684,0,0,1,.5.2.7.7,0,0,1,.2.516V.566a.7.7,0,0,1-.2.51.673.673,0,0,1-.5.205.664.664,0,0,1-.5-.2.738.738,0,0,1-.205-.5,2.407,2.407,0,0,1-.792.581,2.387,2.387,0,0,1-1.05.241A2.682,2.682,0,0,1,26,.982,2.92,2.92,0,0,1,24.963-.173a3.606,3.606,0,0,1-.381-1.678,3.689,3.689,0,0,1,.375-1.684A2.884,2.884,0,0,1,25.984-4.7a2.613,2.613,0,0,1,1.437-.416,2.717,2.717,0,0,1,1.056.205,2.773,2.773,0,0,1,.833.522V-4.4a.7.7,0,0,1,.2-.51A.674.674,0,0,1,30.014-5.112ZM27.644.108a1.567,1.567,0,0,0,1.244-.557,2.069,2.069,0,0,0,.481-1.4,2.092,2.092,0,0,0-.481-1.408,1.56,1.56,0,0,0-1.244-.563,1.547,1.547,0,0,0-1.232.563,2.092,2.092,0,0,0-.481,1.408,2.085,2.085,0,0,0,.475,1.4A1.549,1.549,0,0,0,27.644.108Zm5.925.458a.7.7,0,0,1-.2.51.722.722,0,0,1-1.009,0,.7.7,0,0,1-.2-.51V-4.279a.7.7,0,0,1,.2-.51.673.673,0,0,1,.5-.205.673.673,0,0,1,.5.205.7.7,0,0,1,.2.51Zm-.716-6.323a.932.932,0,0,1-.563-.129.551.551,0,0,1-.164-.458v-.223a.532.532,0,0,1,.176-.458.965.965,0,0,1,.563-.129.958.958,0,0,1,.575.129.551.551,0,0,1,.164.458v.223a.539.539,0,0,1-.17.463A1.024,1.024,0,0,1,32.853-5.758Z" transform="translate(384.09 139.4)" fill="#fff"></path></g></g><path id="Path_4490" data-name="Path 4490" d="M-663.864,159.5h368.215s11.2-.634,11.557,10.074,0,28.794,0,28.794-.029,10.489-11.557,10.632-355.925,0-355.925,0-12.39-1.736-12.29,6.655,0,30.806,0,30.806-1.376,11.358,12.29,11.539,96.648,0,96.648,0" transform="translate(748 -18)" fill="none" stroke="#8d8d8d" stroke-width="1"></path><g id="Group_13245" data-name="Group 13245"><rect id="Rectangle_4422" data-name="Rectangle 4422" width="154" height="29" rx="4" transform="translate(99 127)" fill="#003a65"></rect><text id="Applications" transform="translate(135 147)" fill="#fff" font-size="14" font-family="OpenSans-Semibold, Open Sans" font-weight="600"><tspan x="0" y="0">Applications</tspan></text></g><g id="Group_13246" data-name="Group 13246"><rect id="Rectangle_4423" data-name="Rectangle 4423" width="154" height="29" rx="4" transform="translate(285 127)" fill="#003a65"></rect><text id="OS_and_API" data-name="OS and API" transform="translate(325 147)" fill="#fff" font-size="14" font-family="OpenSans-Semibold, Open Sans" font-weight="600"><tspan x="0" y="0">OS and API</tspan></text></g><g id="Group_13244" data-name="Group 13244"><rect id="Rectangle_4424" data-name="Rectangle 4424" width="154" height="29" rx="4" transform="translate(99 176)" fill="#003a65"></rect><text id="Hyper_local_AI_models" data-name="Hyper local AI models" transform="translate(102 196)" fill="#fff" font-size="14" font-family="OpenSans-Semibold, Open Sans" font-weight="600"><tspan x="0" y="0">Hyper Local AI Models</tspan></text></g><g id="Group_13247" data-name="Group 13247"><rect id="Rectangle_4425" data-name="Rectangle 4425" width="154" height="29" rx="4" transform="translate(285 176)" fill="#003a65"></rect><text id="Specific_AI_models" data-name="Specific AI models" transform="translate(302 196)" fill="#fff" font-size="14" font-family="OpenSans-Semibold, Open Sans" font-weight="600"><tspan x="0" y="0">Specific Ai Models</tspan></text></g><g id="Group_13248" data-name="Group 13248"><rect id="Rectangle_4426" data-name="Rectangle 4426" width="154" height="29" rx="4" transform="translate(192 225)" fill="#003a65"></rect><text id="General_AI_models" data-name="General AI models" transform="translate(208 245)" fill="#fff" font-size="14" font-family="OpenSans-Semibold, Open Sans" font-weight="600"><tspan x="0" y="0">General AI Models</tspan></text></g><circle id="Ellipse_11" data-name="Ellipse 11" cx="5" cy="5" r="5" transform="translate(75 136)" fill="#fff"></circle></svg> 