<?xml version="1.0" encoding="UTF-8"?> <svg xmlns="http://www.w3.org/2000/svg" xmlns:xlink="http://www.w3.org/1999/xlink" id="Group_13429" data-name="Group 13429" width="538" height="300" viewBox="0 0 538 300"><defs><radialGradient id="radial-gradient" cx="0.067" cy="0.17" r="1.126" gradientUnits="objectBoundingBox"><stop offset="0" stop-color="#0472cf"></stop><stop offset="0.417" stop-color="#04327d"></stop><stop offset="1" stop-color="#033069"></stop></radialGradient></defs><rect id="Rectangle_68" data-name="Rectangle 68" width="538" height="300" fill="url(#radial-gradient)"></rect><g id="Group_13426" data-name="Group 13426" transform="translate(1 -0.071)"><g id="Group_13420" data-name="Group 13420" transform="translate(22 12.5)"><rect id="Rectangle_4483" data-name="Rectangle 4483" width="126.303" height="25" rx="4" transform="translate(23 194)" fill="#178aef"></rect><text id="AI_on_data" data-name="AI on data" transform="translate(86 211)" fill="#fff" font-size="12" font-family="OpenSans-Semibold, Open Sans" font-weight="600"><tspan x="-29" y="0">AI on data</tspan></text></g><g id="Group_13419" data-name="Group 13419" transform="translate(-23.697 12.5)"><rect id="Rectangle_4484" data-name="Rectangle 4484" width="126.697" height="25" rx="4" transform="translate(221 194)" fill="#178aef"></rect><text id="AI_compute" data-name="AI compute" transform="translate(284 211)" fill="#fff" font-size="12" font-family="OpenSans-Semibold, Open Sans" font-weight="600"><tspan x="-33" y="0">AI compute</tspan></text></g></g><text id="AI_Services" data-name="AI Services" transform="translate(185 77.787)" fill="#fff" font-size="14" font-family="OpenSans-Semibold, Open Sans" font-weight="600"><tspan x="-36" y="0">AI Services</tspan></text><text id="AI_Infrastructure" data-name="AI Infrastructure" transform="translate(185 188.571)" fill="#fff" font-size="14" font-family="OpenSans-Semibold, Open Sans" font-weight="600"><tspan x="-56" y="0">AI Infrastructure</tspan></text><g id="Group_13425" data-name="Group 13425" transform="translate(1 -0.071)"><g id="Group_13417" data-name="Group 13417" transform="translate(25 -5)"><rect id="Rectangle_4486" data-name="Rectangle 4486" width="126" height="25" rx="4" transform="translate(97 135)" fill="#178aef"></rect><text id="Trained_services" data-name="Trained services" transform="translate(160 152)" fill="#fff" font-size="12" font-family="OpenSans-Semibold, Open Sans" font-weight="600"><tspan x="-46" y="0">Trained services</tspan></text></g><g id="Group_13418" data-name="Group 13418" transform="translate(-8)"><g id="Group_13415" data-name="Group 13415" transform="translate(34 -10)"><rect id="Rectangle_4485" data-name="Rectangle 4485" width="126" height="25" rx="4" transform="translate(19 105)" fill="#188aef"></rect><text id="Conversational_AI" data-name="Conversational AI" transform="translate(82 122)" fill="#fff" font-size="12" font-family="OpenSans-Semibold, Open Sans" font-weight="600"><tspan x="-50" y="0">Conversational AI</tspan></text></g><g id="Group_13416" data-name="Group 13416" transform="translate(24)"><rect id="Rectangle_4487" data-name="Rectangle 4487" width="126" height="25" rx="4" transform="translate(182 95)" fill="#178aef"></rect><text id="Custom_services" data-name="Custom services" transform="translate(245 112)" fill="#fff" font-size="12" font-family="OpenSans-Semibold, Open Sans" font-weight="600"><tspan x="-47" y="0">Custom services</tspan></text></g></g></g><g id="Group_13428" data-name="Group 13428" transform="translate(-3 -0.071)"><g id="Group_13427" data-name="Group 13427"><g id="Group_13424" data-name="Group 13424" transform="translate(0 5)"><text id="Cognitive_toolkit" data-name="Cognitive toolkit" transform="translate(450 191)" fill="#fff" font-size="12" font-family="OpenSans, Open Sans"><tspan x="-46" y="0">Cognitive Toolkit</tspan></text><g id="Rectangle_4488" data-name="Rectangle 4488" transform="translate(381 174)" fill="none" stroke="#188aee" stroke-width="1"><rect width="138" height="25" rx="4" stroke="none"></rect><rect x="0.5" y="0.5" width="137" height="24" rx="3.5" fill="none"></rect></g></g><g id="Group_13422" data-name="Group 13422" transform="translate(31.257 -39)"><g id="Rectangle_4494" data-name="Rectangle 4494" transform="translate(410.743 247)" fill="none" stroke="#188aee" stroke-width="1"><rect width="77" height="25" rx="4" stroke="none"></rect><rect x="0.5" y="0.5" width="76" height="24" rx="3.5" fill="none"></rect></g><text id="TensorFlow" transform="translate(449.743 264)" fill="#fff" font-size="12" font-family="OpenSans, Open Sans"><tspan x="-32" y="0">TensorFlow</tspan></text></g><g id="Group_13423" data-name="Group 13423" transform="translate(-18 5)"><g id="Rectangle_4493" data-name="Rectangle 4493" transform="translate(399 203)" fill="none" stroke="#188aee" stroke-width="1"><rect width="57" height="25" rx="4" stroke="none"></rect><rect x="0.5" y="0.5" width="56" height="24" rx="3.5" fill="none"></rect></g><text id="Caffe" transform="translate(427 220)" fill="#fff" font-size="12" font-family="OpenSans, Open Sans"><tspan x="-14" y="0">Caffe</tspan></text></g></g><text id="AI_Tools" data-name="AI Tools" transform="translate(450 77.858)" fill="#fff" font-size="14" font-family="OpenSans-Semibold, Open Sans" font-weight="600"><tspan x="-26" y="0">AI Tools</tspan></text><text id="Deep_learning_framework" data-name="Deep learning framework" transform="translate(450 147.5)" fill="#fff" font-size="14" font-family="OpenSans-Semibold, Open Sans" font-weight="600"><tspan x="-49" y="0">Deep Learning</tspan><tspan x="-38" y="19">Framework</tspan></text><g id="Group_13421" data-name="Group 13421" transform="translate(-5 -17)"><rect id="Rectangle_4491" data-name="Rectangle 4491" width="138" height="38" rx="4" transform="translate(386 103)" fill="#188aef"></rect><text id="Coding_Management_tools" data-name="Coding &amp; Management tools" transform="translate(455 118)" fill="#fff" font-size="12" font-family="OpenSans, Open Sans"><tspan x="-64" y="0">Coding &amp; Management</tspan><tspan x="-14" y="17">Tools</tspan></text></g><g id="Rectangle_4492" data-name="Rectangle 4492" transform="translate(371 51.142)" fill="none" stroke="#fff" stroke-width="0.5"><rect width="158" height="198" rx="6" stroke="none"></rect><rect x="0.25" y="0.25" width="157.5" height="197.5" rx="5.75" fill="none"></rect></g></g><g id="Rectangle_4495" data-name="Rectangle 4495" transform="translate(12 50.929)" fill="none" stroke="#fff" stroke-width="0.5"><rect width="346" height="198" rx="6" stroke="none"></rect><rect x="0.25" y="0.25" width="345.5" height="197.5" rx="5.75" fill="none"></rect></g></svg> 