<?xml version="1.0" encoding="UTF-8"?> <svg xmlns="http://www.w3.org/2000/svg" xmlns:xlink="http://www.w3.org/1999/xlink" id="Group_13261" data-name="Group 13261" width="538" height="300" viewBox="0 0 538 300"><defs><linearGradient id="linear-gradient" x1="0.53" x2="0.525" y2="1" gradientUnits="objectBoundingBox"><stop offset="0" stop-color="#3877cc"></stop><stop offset="1" stop-color="#052962"></stop></linearGradient></defs><rect id="Rectangle_77" data-name="Rectangle 77" width="538" height="300" fill="url(#linear-gradient)"></rect><g id="Group_13260" data-name="Group 13260" transform="translate(-4.134 1)"><text id="Applications" transform="translate(413 79)" fill="#fff" font-size="16" font-family="OpenSans-Semibold, Open Sans" font-weight="600"><tspan x="-47" y="0">Applications</tspan></text><g id="Group_13259" data-name="Group 13259" transform="translate(-12)"><g id="Group_13256" data-name="Group 13256" transform="translate(-91.933 63.119)"><path id="Path_49" data-name="Path 49" d="M0,225.291v15.734L91.933,292.81V188.076Z" transform="translate(177.067 -67.93)" fill="#0f276c"></path><path id="Path_50" data-name="Path 50" d="M104.515,292.81l91.933-51.786V225.291l-91.933-37.215Z" transform="translate(164.485 -67.93)" fill="#133fbc"></path><path id="Path_51" data-name="Path 51" d="M0,223.137l91.933,51.786,91.933-51.786L91.933,170.188Z" transform="translate(177.067 -65.776)" fill="#537ffd"></path></g><g id="Group_13255" data-name="Group 13255" transform="translate(-91.933 -22.844)"><path id="Path_47" data-name="Path 47" d="M104.515,349.54l91.933-51.786V282.021l-91.933-37.215Z" transform="translate(164.485 -74.759)" fill="#133fbc"></path><g id="Group_13252" data-name="Group 13252"><path id="Path_46" data-name="Path 46" d="M0,282.021v15.734L91.933,349.54V244.806Z" transform="translate(177.067 -74.759)" fill="#0f276c"></path><path id="Path_48" data-name="Path 48" d="M0,279.867l91.933,51.785,91.933-51.785L91.933,226.918Z" transform="translate(177.067 -72.606)" fill="#1b54f8"></path></g></g><g id="Group_13251" data-name="Group 13251" transform="translate(-91.933 -14.646)"><path id="Path_49-2" data-name="Path 49" d="M0,225.291v15.734L91.933,292.81V188.076Z" transform="translate(177.067 -67.93)" fill="#0f276c"></path><path id="Path_50-2" data-name="Path 50" d="M104.515,292.81l91.933-51.786V225.291l-91.933-37.215Z" transform="translate(164.485 -67.93)" fill="#133fbc"></path><path id="Path_51-2" data-name="Path 51" d="M0,223.137l91.933,51.786,91.933-51.786L91.933,170.188Z" transform="translate(177.067 -65.776)" fill="#537ffd"></path></g><g id="Group_13258" data-name="Group 13258" transform="translate(18.134)"><path id="Path_52" data-name="Path 52" d="M0,168.561V184.3l91.933,51.785V131.348Z" transform="translate(67 -65.1)" fill="#0f276c"></path><path id="Path_53" data-name="Path 53" d="M104.515,236.081,196.448,184.3V168.561l-91.933-37.214Z" transform="translate(54.418 -65.1)" fill="#133fbc"></path><path id="Path_54" data-name="Path 54" d="M0,166.408l91.933,51.786,91.933-51.786L91.933,113.459Z" transform="translate(67 -62.947)" fill="#89a7ff"></path></g><g id="Group_13257" data-name="Group 13257" transform="translate(18.134 11)"><path id="Path_55" data-name="Path 55" d="M0,111.832v15.735l91.933,51.786V74.618Z" transform="translate(67 -58.883)" fill="#0f276c"></path><path id="Path_56" data-name="Path 56" d="M104.515,179.352l91.933-51.786V111.832L104.515,74.618Z" transform="translate(54.418 -58.883)" fill="#133fbc"></path><path id="Path_57" data-name="Path 57" d="M0,109.678l91.933,51.786,91.933-51.786L91.933,56.73Z" transform="translate(67 -56.73)" fill="#c0d0ff"></path></g><path id="Path_4491" data-name="Path 4491" d="M.068,25.249l.2-8.265.765-.446L.859,23.931l2.931-1.686-.019.878Zm7.816-4.488-.136-.8-.037.021q-.1.2-.193.379t-.192.331q-.1.154-.191.283t-.19.236q-.095.106-.2.206t-.223.193q-.117.093-.246.18t-.269.167a2.735,2.735,0,0,1-.353.173,1.532,1.532,0,0,1-.311.09.887.887,0,0,1-.269.006.632.632,0,0,1-.227-.077.6.6,0,0,1-.18-.159.86.86,0,0,1-.126-.239,1.533,1.533,0,0,1-.072-.32,2.8,2.8,0,0,1-.018-.4,2.908,2.908,0,0,1,.169-.919,3.416,3.416,0,0,1,.467-.869,5.008,5.008,0,0,1,.766-.82,8.059,8.059,0,0,1,1.066-.773l.854-.528.007-.387a3.2,3.2,0,0,0-.01-.333,1.705,1.705,0,0,0-.042-.267.849.849,0,0,0-.075-.2.443.443,0,0,0-.108-.134.336.336,0,0,0-.143-.068.5.5,0,0,0-.182,0A1.009,1.009,0,0,0,7,15.791a2.025,2.025,0,0,0-.26.129,3.226,3.226,0,0,0-.324.217q-.167.127-.345.289t-.367.36q-.189.2-.388.431L5.1,16.633q.094-.116.191-.227t.2-.219q.1-.108.209-.211t.217-.2q.111-.1.222-.19t.222-.172q.111-.082.222-.155t.222-.138a3.79,3.79,0,0,1,.419-.213,1.983,1.983,0,0,1,.36-.118,1.006,1.006,0,0,1,.3-.022.594.594,0,0,1,.242.073.564.564,0,0,1,.185.174,1,1,0,0,1,.129.28,2.071,2.071,0,0,1,.074.386,4.075,4.075,0,0,1,.018.492l-.075,4.266Zm-1.711.322a3.109,3.109,0,0,0,.337-.224,2.983,2.983,0,0,0,.564-.564,3.229,3.229,0,0,0,.409-.71,3.155,3.155,0,0,0,.133-.388,3.28,3.28,0,0,0,.083-.407,3.571,3.571,0,0,0,.033-.426l.01-.564-.763.48q-.227.141-.423.281t-.36.278a4.044,4.044,0,0,0-.3.275,2.828,2.828,0,0,0-.234.272,2.226,2.226,0,0,0-.179.278,2.013,2.013,0,0,0-.129.292,1.96,1.96,0,0,0-.08.306,2.062,2.062,0,0,0-.031.32,1.587,1.587,0,0,0,.011.232.848.848,0,0,0,.042.184.466.466,0,0,0,.074.135.328.328,0,0,0,.106.087.374.374,0,0,0,.135.038.561.561,0,0,0,.161-.009.993.993,0,0,0,.186-.057A1.775,1.775,0,0,0,6.173,21.083Zm3.16-7.337.819-.476L11.2,16.184q.087.253.157.473t.124.409q.053.188.09.344t.057.279l.037-.021q.016-.082.041-.194t.058-.255q.033-.143.076-.317t.093-.378q.051-.2.159-.623t.274-1.052q.165-.633.388-1.479t.5-1.9l.826-.48-2.29,8.4q-.085.312-.177.59t-.19.521q-.1.243-.2.452a4.273,4.273,0,0,1-.215.382,3.69,3.69,0,0,1-.233.326,3.224,3.224,0,0,1-.256.285,2.923,2.923,0,0,1-.28.243,2.774,2.774,0,0,1-.3.2q-.088.05-.176.094t-.174.081q-.087.037-.173.068t-.171.055l.013-.765q.063-.019.131-.045t.138-.058q.071-.032.146-.071t.154-.084a1.839,1.839,0,0,0,.369-.279,2.275,2.275,0,0,0,.315-.385,3.161,3.161,0,0,0,.26-.491,4.618,4.618,0,0,0,.205-.6l.3-1.058ZM17,15.638a3.546,3.546,0,0,1-.54.257,1.98,1.98,0,0,1-.478.116,1.213,1.213,0,0,1-.416-.025,1.007,1.007,0,0,1-.354-.166,1.145,1.145,0,0,1-.282-.3,1.731,1.731,0,0,1-.2-.43,3.028,3.028,0,0,1-.115-.559,5.323,5.323,0,0,1-.032-.688,7.141,7.141,0,0,1,.047-.74,6.44,6.44,0,0,1,.122-.706,6.016,6.016,0,0,1,.2-.672,5.853,5.853,0,0,1,.272-.638,5.328,5.328,0,0,1,.335-.581,4.457,4.457,0,0,1,.386-.5,3.932,3.932,0,0,1,.437-.42,3.715,3.715,0,0,1,.489-.339,2.792,2.792,0,0,1,.456-.217,1.555,1.555,0,0,1,.405-.092.981.981,0,0,1,.354.034.878.878,0,0,1,.3.16,1.115,1.115,0,0,1,.243.275,1.61,1.61,0,0,1,.172.378,2.662,2.662,0,0,1,.1.481,4.482,4.482,0,0,1,.03.584l-.006.6L15.39,13.5a4.3,4.3,0,0,0,.031.5,2.394,2.394,0,0,0,.083.4,1.3,1.3,0,0,0,.135.306.776.776,0,0,0,.187.21.647.647,0,0,0,.236.114.8.8,0,0,0,.281.017,1.356,1.356,0,0,0,.327-.081,2.49,2.49,0,0,0,.372-.178q.208-.12.415-.265t.414-.317q.207-.172.412-.369t.411-.422l-.008.852q-.1.114-.206.219t-.2.2q-.1.1-.194.182t-.188.163q-.093.077-.195.153t-.214.152q-.112.076-.233.151T17,15.638Zm-.149-5.591a2.393,2.393,0,0,0-.293.2,2.452,2.452,0,0,0-.263.244,2.678,2.678,0,0,0-.232.287,3.081,3.081,0,0,0-.2.33,3.636,3.636,0,0,0-.168.364,3.91,3.91,0,0,0-.131.389q-.056.2-.094.415t-.056.44L18.1,11.165a3.786,3.786,0,0,0-.016-.411,2.13,2.13,0,0,0-.058-.334,1.154,1.154,0,0,0-.1-.258.667.667,0,0,0-.141-.181.5.5,0,0,0-.18-.1.567.567,0,0,0-.215-.023.946.946,0,0,0-.251.057A1.773,1.773,0,0,0,16.856,10.047Zm5.8-4.16q.086-.05.168-.094t.16-.08q.078-.037.151-.066t.142-.053l-.114.945q-.081.025-.156.053t-.147.059q-.071.031-.137.064t-.128.069a2.13,2.13,0,0,0-.3.215,2.569,2.569,0,0,0-.281.279,3.276,3.276,0,0,0-.259.343,4.307,4.307,0,0,0-.237.407,4.421,4.421,0,0,0-.2.442,4.032,4.032,0,0,0-.142.447,3.8,3.8,0,0,0-.118.912l-.025,3.384-.787.452.051-6.289L20.941,7l.081,1.108.038-.022q.073-.195.154-.376t.168-.35q.088-.168.183-.324t.2-.3q.1-.142.209-.266t.219-.231a2.708,2.708,0,0,1,.229-.2A2.358,2.358,0,0,1,22.658,5.887Zm6.711,2.537-.782.449.008-6.013q0-.187,0-.369t.008-.362q.005-.179.012-.355t.017-.347l-.052.091-.055.094-.058.1-.061.1L28.29,2l-.23.36-.341.531-.453.7-.419-.409L28.7.392,29.374,0Z" transform="translate(189.616 95.23)" fill="#fff"></path><path id="Path_4492" data-name="Path 4492" d="M.07,26.3l.207-8.261L1.04,17.6l-.18,7.39L3.786,23.3l-.019.878Zm7.8-4.48-.135-.8L7.7,21.04q-.1.2-.193.379t-.192.331q-.1.154-.191.283t-.19.236q-.094.106-.2.205t-.223.192q-.117.093-.246.18T6,23.013a2.727,2.727,0,0,1-.352.173,1.527,1.527,0,0,1-.31.089.884.884,0,0,1-.269.006A.63.63,0,0,1,4.84,23.2a.6.6,0,0,1-.179-.159.86.86,0,0,1-.125-.239,1.535,1.535,0,0,1-.071-.32,2.807,2.807,0,0,1-.017-.4,2.911,2.911,0,0,1,.169-.919,3.416,3.416,0,0,1,.466-.868,5,5,0,0,1,.765-.819,8.041,8.041,0,0,1,1.065-.771l.852-.527.007-.386a3.209,3.209,0,0,0-.009-.333A1.707,1.707,0,0,0,7.72,17.2a.849.849,0,0,0-.075-.2.443.443,0,0,0-.107-.134.335.335,0,0,0-.143-.068.5.5,0,0,0-.182,0,1.006,1.006,0,0,0-.22.063,2.019,2.019,0,0,0-.259.129,3.217,3.217,0,0,0-.323.217q-.167.126-.345.288t-.366.359q-.189.2-.388.431l-.217-.584q.093-.116.191-.227t.2-.219q.1-.107.208-.211t.217-.2q.111-.1.221-.19t.221-.172q.111-.082.221-.155t.221-.137a3.779,3.779,0,0,1,.418-.212,1.977,1.977,0,0,1,.359-.117,1,1,0,0,1,.3-.022.592.592,0,0,1,.241.073.564.564,0,0,1,.184.174,1,1,0,0,1,.129.28,2.074,2.074,0,0,1,.073.386,4.08,4.08,0,0,1,.018.492L8.438,21.5Zm-1.707.32A3.1,3.1,0,0,0,6.5,21.92a2.973,2.973,0,0,0,.3-.262,3,3,0,0,0,.263-.3,3.228,3.228,0,0,0,.409-.709,3.157,3.157,0,0,0,.133-.388,3.283,3.283,0,0,0,.083-.407,3.575,3.575,0,0,0,.033-.426l.011-.564-.761.479q-.227.141-.422.28T6.19,19.9a4.037,4.037,0,0,0-.3.274,2.825,2.825,0,0,0-.234.272,2.225,2.225,0,0,0-.178.277,2.014,2.014,0,0,0-.129.291,1.962,1.962,0,0,0-.08.306,2.065,2.065,0,0,0-.031.32,1.589,1.589,0,0,0,.011.232.848.848,0,0,0,.042.184.466.466,0,0,0,.074.135.328.328,0,0,0,.106.087.373.373,0,0,0,.135.038.558.558,0,0,0,.16-.009.989.989,0,0,0,.186-.057A1.77,1.77,0,0,0,6.165,22.144Zm3.158-7.331.818-.475,1.048,2.914q.086.253.156.473t.123.409q.053.188.09.344t.056.279l.037-.021q.016-.082.041-.194t.058-.255q.034-.143.076-.317t.093-.378q.051-.2.159-.623t.274-1.051q.165-.632.388-1.478t.5-1.9l.825-.479-2.291,8.391q-.085.312-.177.59t-.19.521q-.1.243-.2.451a4.273,4.273,0,0,1-.214.382,3.686,3.686,0,0,1-.232.326A3.219,3.219,0,0,1,10.5,23a2.917,2.917,0,0,1-.28.243,2.767,2.767,0,0,1-.3.2q-.088.05-.175.094t-.174.081q-.087.037-.172.068t-.171.055l.013-.764q.063-.019.13-.045t.138-.058q.071-.032.146-.071t.153-.083a1.835,1.835,0,0,0,.369-.279,2.272,2.272,0,0,0,.314-.385,3.161,3.161,0,0,0,.26-.49,4.621,4.621,0,0,0,.205-.6l.3-1.057Zm7.654,1.9a3.534,3.534,0,0,1-.539.257,1.973,1.973,0,0,1-.477.116,1.209,1.209,0,0,1-.415-.025,1,1,0,0,1-.354-.166,1.144,1.144,0,0,1-.281-.3,1.732,1.732,0,0,1-.2-.43A3.031,3.031,0,0,1,14.6,15.6a5.33,5.33,0,0,1-.031-.687,7.151,7.151,0,0,1,.048-.74,6.447,6.447,0,0,1,.122-.705,6.021,6.021,0,0,1,.2-.671,5.855,5.855,0,0,1,.272-.637,5.327,5.327,0,0,1,.335-.58,4.453,4.453,0,0,1,.386-.5,3.926,3.926,0,0,1,.436-.419,3.706,3.706,0,0,1,.488-.339,2.783,2.783,0,0,1,.455-.217,1.549,1.549,0,0,1,.4-.091.978.978,0,0,1,.354.034.876.876,0,0,1,.3.16,1.114,1.114,0,0,1,.242.275,1.611,1.611,0,0,1,.171.378,2.666,2.666,0,0,1,.1.481,4.488,4.488,0,0,1,.029.584l-.006.6-3.536,2.042a4.3,4.3,0,0,0,.031.5,2.4,2.4,0,0,0,.083.4,1.3,1.3,0,0,0,.135.306.776.776,0,0,0,.187.21.645.645,0,0,0,.235.114.8.8,0,0,0,.281.017,1.351,1.351,0,0,0,.326-.08,2.482,2.482,0,0,0,.371-.178q.208-.119.415-.265t.413-.317q.206-.171.412-.369t.41-.421l-.009.851q-.1.114-.205.219t-.2.2q-.1.1-.194.182t-.188.163q-.093.077-.195.153t-.213.152q-.111.076-.232.151T16.977,16.71Zm-.145-5.588a2.387,2.387,0,0,0-.293.2,2.448,2.448,0,0,0-.262.243,2.675,2.675,0,0,0-.232.287,3.08,3.08,0,0,0-.2.33,3.637,3.637,0,0,0-.168.364,3.912,3.912,0,0,0-.131.389q-.056.2-.094.415t-.057.44l2.68-1.55a3.79,3.79,0,0,0-.016-.411A2.133,2.133,0,0,0,18,11.495a1.155,1.155,0,0,0-.1-.258.667.667,0,0,0-.141-.181.5.5,0,0,0-.179-.1.565.565,0,0,0-.215-.023.942.942,0,0,0-.25.057A1.768,1.768,0,0,0,16.832,11.122Zm5.792-4.154q.086-.05.168-.093t.159-.08q.077-.036.15-.066t.142-.052l-.115.944q-.08.025-.156.053t-.147.058q-.071.03-.137.064t-.128.069a2.124,2.124,0,0,0-.3.215,2.565,2.565,0,0,0-.281.278,3.274,3.274,0,0,0-.259.342,4.306,4.306,0,0,0-.237.406,4.422,4.422,0,0,0-.2.441,4.036,4.036,0,0,0-.142.447,3.8,3.8,0,0,0-.118.912L21,14.289l-.786.451.055-6.287.645-.375.08,1.108.038-.022q.073-.195.154-.376t.168-.35q.088-.168.182-.323t.2-.3q.1-.142.209-.266t.219-.23a2.7,2.7,0,0,1,.229-.195A2.353,2.353,0,0,1,22.624,6.968Zm8.367,1.581-4.63,2.659,0-.827,1.853-3.3q.212-.379.388-.7T28.92,5.8q.14-.264.243-.469t.171-.354q.067-.148.126-.29t.11-.278q.051-.136.093-.265t.076-.252q.034-.123.059-.245T29.84,3.4q.017-.121.025-.241t.009-.239a2.015,2.015,0,0,0-.021-.306,1.152,1.152,0,0,0-.064-.246.7.7,0,0,0-.106-.187.529.529,0,0,0-.149-.127.52.52,0,0,0-.187-.063A.718.718,0,0,0,29.128,2a1.229,1.229,0,0,0-.252.074,2.184,2.184,0,0,0-.285.142q-.109.063-.215.136t-.209.154q-.1.082-.2.172t-.2.19q-.1.1-.2.22t-.212.261q-.109.141-.223.3t-.234.344l-.417-.4q.242-.38.494-.707a7.266,7.266,0,0,1,.515-.6,5.681,5.681,0,0,1,.536-.493,4.587,4.587,0,0,1,.558-.386,3.826,3.826,0,0,1,.466-.234,2.18,2.18,0,0,1,.413-.128,1.267,1.267,0,0,1,.36-.022.876.876,0,0,1,.307.085.819.819,0,0,1,.246.185,1,1,0,0,1,.176.278,1.6,1.6,0,0,1,.105.371,2.81,2.81,0,0,1,.035.465,3.748,3.748,0,0,1-.024.412q-.024.212-.071.437t-.118.463q-.071.238-.165.488t-.229.55q-.135.3-.311.649t-.393.749q-.217.4-.475.848L27.366,9.695v.046l3.625-2.085Z" transform="translate(190 133.468)" fill="#fff"></path><path id="Path_4493" data-name="Path 4493" d="M.07,26.276l.206-8.261.764-.446-.18,7.39,2.926-1.683-.019.878Zm7.8-4.48-.135-.8-.037.021q-.1.2-.193.379t-.192.331q-.1.154-.191.283t-.19.236q-.094.106-.2.205t-.223.192q-.117.093-.246.18T6,22.985a2.727,2.727,0,0,1-.352.173,1.527,1.527,0,0,1-.31.089.884.884,0,0,1-.269.006.63.63,0,0,1-.227-.077.6.6,0,0,1-.179-.159.86.86,0,0,1-.125-.239,1.535,1.535,0,0,1-.071-.32,2.807,2.807,0,0,1-.017-.4,2.911,2.911,0,0,1,.169-.919,3.416,3.416,0,0,1,.466-.868,5,5,0,0,1,.765-.819,8.041,8.041,0,0,1,1.065-.771l.852-.527.007-.386a3.209,3.209,0,0,0-.009-.333,1.707,1.707,0,0,0-.042-.267.849.849,0,0,0-.075-.2.443.443,0,0,0-.107-.134.335.335,0,0,0-.143-.068.5.5,0,0,0-.182,0,1.006,1.006,0,0,0-.22.063,2.019,2.019,0,0,0-.259.129,3.218,3.218,0,0,0-.323.217q-.167.126-.345.288t-.366.359q-.189.2-.388.431l-.217-.584q.093-.116.191-.227t.2-.219q.1-.107.208-.211t.217-.2q.111-.1.221-.19t.221-.172q.111-.082.221-.155t.221-.137a3.779,3.779,0,0,1,.418-.212,1.977,1.977,0,0,1,.359-.117,1,1,0,0,1,.3-.022.592.592,0,0,1,.241.073.564.564,0,0,1,.184.174,1,1,0,0,1,.129.28,2.074,2.074,0,0,1,.073.386,4.08,4.08,0,0,1,.018.492l-.078,4.264Zm-1.708.32a3.1,3.1,0,0,0,.336-.223,2.973,2.973,0,0,0,.3-.262,3,3,0,0,0,.263-.3,3.228,3.228,0,0,0,.409-.709,3.157,3.157,0,0,0,.133-.388,3.283,3.283,0,0,0,.083-.407,3.575,3.575,0,0,0,.033-.426l.011-.564-.761.479q-.227.141-.422.28t-.359.277a4.038,4.038,0,0,0-.3.274,2.825,2.825,0,0,0-.234.272,2.225,2.225,0,0,0-.178.277,2.014,2.014,0,0,0-.129.291,1.962,1.962,0,0,0-.08.306,2.065,2.065,0,0,0-.031.32,1.588,1.588,0,0,0,.011.232.848.848,0,0,0,.042.184.466.466,0,0,0,.074.135.328.328,0,0,0,.106.087.373.373,0,0,0,.135.038.558.558,0,0,0,.16-.009.989.989,0,0,0,.186-.057A1.77,1.77,0,0,0,6.165,22.116Zm3.158-7.331.818-.475,1.048,2.914q.086.253.156.473t.123.409q.053.188.09.344t.056.279l.037-.021q.016-.082.041-.194t.058-.255q.034-.143.076-.317t.093-.378q.051-.2.159-.623t.274-1.051q.165-.632.388-1.478t.5-1.9l.825-.479-2.291,8.391q-.085.312-.177.59t-.19.521q-.1.243-.2.451a4.272,4.272,0,0,1-.214.382,3.686,3.686,0,0,1-.232.326,3.219,3.219,0,0,1-.256.284,2.918,2.918,0,0,1-.28.243,2.767,2.767,0,0,1-.3.2q-.088.05-.175.094t-.174.081q-.087.037-.172.068t-.171.055l.013-.764q.063-.019.13-.045t.138-.058q.071-.032.146-.071t.153-.083a1.835,1.835,0,0,0,.369-.279,2.272,2.272,0,0,0,.314-.385,3.161,3.161,0,0,0,.26-.49,4.621,4.621,0,0,0,.205-.6l.3-1.057Zm7.654,1.9a3.535,3.535,0,0,1-.539.257,1.973,1.973,0,0,1-.477.116,1.209,1.209,0,0,1-.415-.025,1,1,0,0,1-.354-.166,1.144,1.144,0,0,1-.281-.3,1.732,1.732,0,0,1-.2-.43,3.031,3.031,0,0,1-.114-.559,5.33,5.33,0,0,1-.031-.687,7.151,7.151,0,0,1,.048-.74,6.447,6.447,0,0,1,.122-.705,6.021,6.021,0,0,1,.2-.671,5.855,5.855,0,0,1,.272-.637,5.326,5.326,0,0,1,.335-.58,4.453,4.453,0,0,1,.386-.5,3.926,3.926,0,0,1,.437-.419,3.706,3.706,0,0,1,.488-.339,2.783,2.783,0,0,1,.455-.217,1.549,1.549,0,0,1,.4-.091.978.978,0,0,1,.354.034.876.876,0,0,1,.3.16,1.114,1.114,0,0,1,.242.275,1.611,1.611,0,0,1,.171.378,2.665,2.665,0,0,1,.1.481,4.487,4.487,0,0,1,.029.584l-.006.6-3.537,2.042a4.3,4.3,0,0,0,.031.5,2.4,2.4,0,0,0,.083.4,1.3,1.3,0,0,0,.135.306.776.776,0,0,0,.187.21.645.645,0,0,0,.235.114.8.8,0,0,0,.281.017,1.351,1.351,0,0,0,.326-.081,2.482,2.482,0,0,0,.371-.178q.208-.119.415-.265t.413-.317q.206-.171.412-.369t.41-.421l-.009.851q-.1.114-.205.219t-.2.2q-.1.1-.194.182t-.188.163q-.093.077-.195.153t-.213.152q-.111.076-.232.151T16.978,16.683Zm-.145-5.589a2.387,2.387,0,0,0-.293.2,2.448,2.448,0,0,0-.262.243,2.675,2.675,0,0,0-.232.287,3.08,3.08,0,0,0-.2.33,3.637,3.637,0,0,0-.168.364,3.912,3.912,0,0,0-.131.389q-.056.2-.094.415t-.057.44l2.68-1.55a3.791,3.791,0,0,0-.016-.411A2.132,2.132,0,0,0,18,11.467a1.155,1.155,0,0,0-.1-.258.667.667,0,0,0-.141-.181.5.5,0,0,0-.179-.1.565.565,0,0,0-.215-.023.942.942,0,0,0-.25.057A1.768,1.768,0,0,0,16.832,11.094ZM22.625,6.94q.086-.05.168-.093t.159-.08q.077-.036.15-.066t.142-.052l-.115.944q-.08.025-.156.053t-.147.058q-.071.03-.137.064t-.128.069a2.125,2.125,0,0,0-.3.215,2.564,2.564,0,0,0-.281.278,3.273,3.273,0,0,0-.259.342,4.306,4.306,0,0,0-.237.406,4.421,4.421,0,0,0-.2.441,4.036,4.036,0,0,0-.142.447,3.8,3.8,0,0,0-.118.912L21,14.261l-.786.451.055-6.287.645-.375.08,1.108.038-.022q.073-.195.154-.376t.168-.35q.088-.168.182-.323t.2-.3q.1-.142.209-.266t.219-.23a2.7,2.7,0,0,1,.229-.195A2.352,2.352,0,0,1,22.625,6.94Zm8.1-4.721a3.327,3.327,0,0,1-.024.4,3.244,3.244,0,0,1-.071.389,3.3,3.3,0,0,1-.118.38,3.51,3.51,0,0,1-.166.37,3.881,3.881,0,0,1-.209.356,4.034,4.034,0,0,1-.248.336q-.134.163-.287.317t-.327.3v.046a3.069,3.069,0,0,1,.4-.141,1.723,1.723,0,0,1,.341-.061.984.984,0,0,1,.287.02.674.674,0,0,1,.232.1.741.741,0,0,1,.179.176.994.994,0,0,1,.128.246,1.6,1.6,0,0,1,.077.317,2.69,2.69,0,0,1,.026.387,4.013,4.013,0,0,1-.044.595,3.9,3.9,0,0,1-.132.576,4.044,4.044,0,0,1-.219.557,4.47,4.47,0,0,1-.307.537,4.961,4.961,0,0,1-.387.508,5.4,5.4,0,0,1-.461.468,6.118,6.118,0,0,1-.534.429,7.142,7.142,0,0,1-.606.389q-.14.08-.273.151t-.261.131q-.128.061-.249.112t-.238.092q-.116.041-.23.072t-.226.051q-.112.02-.223.03t-.219.009l0-.913q.113,0,.231-.005t.239-.026q.121-.018.246-.047t.254-.067q.129-.039.254-.084t.248-.1q.122-.053.241-.112t.234-.126a4.8,4.8,0,0,0,.8-.567,3.324,3.324,0,0,0,.572-.651A2.73,2.73,0,0,0,30,7.424a2.879,2.879,0,0,0,.115-.817,1.192,1.192,0,0,0-.125-.6.527.527,0,0,0-.377-.261,1.317,1.317,0,0,0-.628.076,4.722,4.722,0,0,0-.878.412l-.69.4,0-.822.7-.405a4.484,4.484,0,0,0,.389-.252,4.016,4.016,0,0,0,.347-.282,3.718,3.718,0,0,0,.3-.312,3.581,3.581,0,0,0,.262-.342,3.14,3.14,0,0,0,.211-.36,2.706,2.706,0,0,0,.151-.367,2.473,2.473,0,0,0,.09-.374,2.424,2.424,0,0,0,.03-.381,1.6,1.6,0,0,0-.022-.278.885.885,0,0,0-.066-.219.547.547,0,0,0-.11-.16.469.469,0,0,0-.154-.1.576.576,0,0,0-.192-.041.858.858,0,0,0-.223.021,1.458,1.458,0,0,0-.255.083,2.5,2.5,0,0,0-.286.145q-.115.067-.226.141t-.22.156q-.108.082-.213.171t-.207.185q-.1.1-.21.213t-.225.252q-.116.136-.239.292t-.254.332l-.4-.407q.108-.164.223-.322t.24-.31q.124-.152.256-.3t.272-.285q.14-.14.284-.267t.292-.243q.148-.115.3-.218t.307-.194a4.446,4.446,0,0,1,.481-.246,2.535,2.535,0,0,1,.425-.143,1.431,1.431,0,0,1,.368-.041.906.906,0,0,1,.312.062.754.754,0,0,1,.248.161.867.867,0,0,1,.177.254,1.392,1.392,0,0,1,.106.348A2.5,2.5,0,0,1,30.727,2.219Z" transform="translate(190 172.76)" fill="#fff"></path><path id="Path_4494" data-name="Path 4494" d="M.07,26.415l.208-8.26.763-.445L.86,25.1l2.925-1.683-.019.877Zm7.8-4.478-.135-.8-.037.021q-.1.2-.193.378t-.192.331q-.1.153-.191.283t-.19.235q-.094.106-.2.205t-.223.192q-.117.093-.245.18T6,23.126a2.726,2.726,0,0,1-.352.173,1.526,1.526,0,0,1-.31.089.883.883,0,0,1-.269.006.629.629,0,0,1-.227-.077.6.6,0,0,1-.179-.159.86.86,0,0,1-.125-.239,1.535,1.535,0,0,1-.071-.32,2.808,2.808,0,0,1-.017-.4,2.912,2.912,0,0,1,.169-.919,3.416,3.416,0,0,1,.466-.868,5,5,0,0,1,.764-.819,8.037,8.037,0,0,1,1.064-.771l.852-.526.007-.386a3.209,3.209,0,0,0-.009-.333,1.707,1.707,0,0,0-.042-.267.849.849,0,0,0-.075-.2.443.443,0,0,0-.107-.134.334.334,0,0,0-.143-.068.5.5,0,0,0-.182,0,1,1,0,0,0-.22.063,2.018,2.018,0,0,0-.259.129,3.216,3.216,0,0,0-.323.217q-.167.126-.345.288t-.366.359q-.189.2-.388.43l-.217-.584q.093-.116.191-.227t.2-.219q.1-.107.208-.211t.217-.2q.111-.1.221-.19t.221-.172q.111-.082.221-.155t.221-.137a3.777,3.777,0,0,1,.418-.212,1.976,1.976,0,0,1,.359-.117,1,1,0,0,1,.3-.022.592.592,0,0,1,.241.073.563.563,0,0,1,.184.174,1,1,0,0,1,.129.28,2.074,2.074,0,0,1,.073.386,4.081,4.081,0,0,1,.018.492l-.079,4.264Zm-1.707.32a3.1,3.1,0,0,0,.336-.223,2.971,2.971,0,0,0,.3-.262,3,3,0,0,0,.263-.3,3.228,3.228,0,0,0,.409-.709,3.157,3.157,0,0,0,.133-.388,3.283,3.283,0,0,0,.083-.407,3.575,3.575,0,0,0,.033-.426l.011-.563-.761.479q-.227.141-.422.28t-.359.277a4.036,4.036,0,0,0-.3.274,2.824,2.824,0,0,0-.234.271,2.225,2.225,0,0,0-.178.277,2.014,2.014,0,0,0-.129.291,1.962,1.962,0,0,0-.08.306,2.065,2.065,0,0,0-.031.32,1.589,1.589,0,0,0,.01.232.849.849,0,0,0,.042.184.466.466,0,0,0,.074.135.328.328,0,0,0,.106.087.373.373,0,0,0,.134.038.558.558,0,0,0,.16-.009.989.989,0,0,0,.186-.057A1.768,1.768,0,0,0,6.163,22.257Zm3.157-7.33.817-.475,1.047,2.914q.086.253.156.473t.123.409q.053.188.09.344t.056.279l.037-.021q.016-.082.041-.194t.058-.255q.034-.143.076-.317t.093-.378q.051-.2.159-.623t.274-1.051q.165-.632.388-1.478t.5-1.9l.825-.479-2.291,8.389q-.085.312-.177.59t-.189.52q-.1.243-.2.451a4.273,4.273,0,0,1-.214.382,3.687,3.687,0,0,1-.232.326,3.218,3.218,0,0,1-.256.284,2.915,2.915,0,0,1-.28.242,2.766,2.766,0,0,1-.3.2q-.088.05-.175.094t-.174.081q-.086.037-.172.068t-.171.055l.014-.764q.063-.019.13-.045t.138-.058q.071-.032.146-.071t.153-.083a1.834,1.834,0,0,0,.368-.279,2.272,2.272,0,0,0,.314-.385,3.16,3.16,0,0,0,.26-.49,4.621,4.621,0,0,0,.205-.6l.3-1.057Zm7.65,1.9a3.532,3.532,0,0,1-.539.257,1.972,1.972,0,0,1-.477.116,1.208,1.208,0,0,1-.415-.025,1,1,0,0,1-.353-.166,1.143,1.143,0,0,1-.281-.3,1.732,1.732,0,0,1-.2-.43,3.031,3.031,0,0,1-.114-.559,5.331,5.331,0,0,1-.031-.687,7.151,7.151,0,0,1,.048-.74,6.447,6.447,0,0,1,.122-.705,6.021,6.021,0,0,1,.2-.671,5.856,5.856,0,0,1,.272-.637,5.326,5.326,0,0,1,.335-.58,4.453,4.453,0,0,1,.385-.5,3.925,3.925,0,0,1,.436-.419,3.7,3.7,0,0,1,.488-.339,2.781,2.781,0,0,1,.455-.217,1.548,1.548,0,0,1,.4-.091.977.977,0,0,1,.353.034.875.875,0,0,1,.3.16,1.114,1.114,0,0,1,.242.275,1.611,1.611,0,0,1,.171.378,2.666,2.666,0,0,1,.1.481,4.488,4.488,0,0,1,.029.584l-.006.6-3.535,2.042a4.3,4.3,0,0,0,.031.5,2.4,2.4,0,0,0,.082.4,1.3,1.3,0,0,0,.134.306.776.776,0,0,0,.187.21.645.645,0,0,0,.235.114.8.8,0,0,0,.281.017,1.35,1.35,0,0,0,.326-.08,2.481,2.481,0,0,0,.371-.178q.208-.119.414-.265t.413-.317q.206-.171.411-.369t.41-.421l-.009.851q-.1.114-.205.219t-.2.2q-.1.1-.194.182t-.188.163q-.093.077-.194.153t-.213.152q-.111.076-.232.151T16.97,16.826Zm-.144-5.588a2.386,2.386,0,0,0-.293.2,2.448,2.448,0,0,0-.262.243,2.675,2.675,0,0,0-.232.286,3.08,3.08,0,0,0-.2.33,3.636,3.636,0,0,0-.167.364,3.912,3.912,0,0,0-.131.389q-.056.2-.094.415t-.057.44l2.679-1.549a3.792,3.792,0,0,0-.016-.411A2.133,2.133,0,0,0,18,11.611a1.155,1.155,0,0,0-.1-.258.666.666,0,0,0-.14-.181.5.5,0,0,0-.179-.1.564.564,0,0,0-.215-.023.942.942,0,0,0-.25.057A1.767,1.767,0,0,0,16.826,11.238Zm5.79-4.152q.086-.05.168-.093t.159-.08q.077-.036.15-.066t.141-.052l-.115.944q-.08.025-.156.053t-.147.058q-.071.03-.137.064t-.128.069a2.124,2.124,0,0,0-.3.214,2.564,2.564,0,0,0-.281.278,3.273,3.273,0,0,0-.259.342,4.3,4.3,0,0,0-.237.406,4.422,4.422,0,0,0-.2.441,4.036,4.036,0,0,0-.142.447,3.8,3.8,0,0,0-.118.911L20.987,14.4l-.785.451.056-6.286L20.9,8.2l.08,1.108.038-.022q.073-.195.154-.376t.168-.35q.088-.168.182-.323t.2-.3q.1-.142.209-.266t.219-.23a2.7,2.7,0,0,1,.229-.195A2.351,2.351,0,0,1,22.616,7.086Zm8.7-.558-1.048.6V9.078l-.768.441,0-1.945L26.086,9.541l0-.836,3.336-7.6.844-.493,0,5.651,1.048-.6ZM29.5,6.7l0-2.8q0-.205,0-.426t.01-.455q.006-.235.016-.485t.022-.515l-.038.022q-.058.171-.114.329t-.11.3q-.054.145-.106.278t-.1.252l-2.2,5.005Z" transform="translate(190 213.156)" fill="#fff"></path><path id="Path_4495" data-name="Path 4495" d="M.07,26.162.277,17.9l.764-.446L.86,24.845l2.926-1.683-.019.878Zm7.8-4.48-.135-.8L7.7,20.9q-.1.2-.193.379t-.192.331q-.1.154-.191.283t-.19.236q-.094.106-.2.205t-.223.192q-.117.093-.246.18T6,22.871a2.727,2.727,0,0,1-.352.173,1.527,1.527,0,0,1-.31.089.884.884,0,0,1-.269.006.63.63,0,0,1-.227-.077.6.6,0,0,1-.179-.159.86.86,0,0,1-.125-.239,1.534,1.534,0,0,1-.071-.32,2.807,2.807,0,0,1-.017-.4,2.911,2.911,0,0,1,.169-.919,3.416,3.416,0,0,1,.466-.868,5,5,0,0,1,.765-.819,8.042,8.042,0,0,1,1.065-.771l.852-.527.007-.386a3.208,3.208,0,0,0-.009-.333,1.707,1.707,0,0,0-.042-.267.849.849,0,0,0-.075-.2.443.443,0,0,0-.107-.134.335.335,0,0,0-.143-.068.5.5,0,0,0-.182,0,1.006,1.006,0,0,0-.22.063,2.02,2.02,0,0,0-.259.129,3.218,3.218,0,0,0-.323.217q-.167.126-.345.288t-.366.359q-.189.2-.388.431l-.217-.584q.093-.116.191-.227t.2-.219q.1-.107.208-.211t.217-.2q.111-.1.221-.19t.221-.172q.111-.082.221-.155t.221-.137a3.779,3.779,0,0,1,.418-.212,1.977,1.977,0,0,1,.359-.117,1,1,0,0,1,.3-.022.592.592,0,0,1,.241.073.564.564,0,0,1,.184.174,1,1,0,0,1,.129.28A2.073,2.073,0,0,1,8.5,16.6a4.079,4.079,0,0,1,.018.492l-.078,4.264ZM6.165,22a3.1,3.1,0,0,0,.336-.223,2.973,2.973,0,0,0,.3-.262,3,3,0,0,0,.263-.3,3.229,3.229,0,0,0,.409-.709,3.157,3.157,0,0,0,.133-.388,3.283,3.283,0,0,0,.083-.407,3.574,3.574,0,0,0,.033-.426l.011-.563-.761.479q-.227.141-.422.28t-.359.277a4.038,4.038,0,0,0-.3.274,2.825,2.825,0,0,0-.234.272,2.225,2.225,0,0,0-.178.277,2.014,2.014,0,0,0-.129.291,1.962,1.962,0,0,0-.08.306,2.065,2.065,0,0,0-.031.32,1.588,1.588,0,0,0,.011.232.848.848,0,0,0,.042.184.466.466,0,0,0,.074.135.328.328,0,0,0,.106.087.373.373,0,0,0,.135.038.559.559,0,0,0,.16-.009.99.99,0,0,0,.186-.057A1.77,1.77,0,0,0,6.165,22Zm3.158-7.331.818-.475,1.048,2.914q.086.253.156.473t.123.409q.053.188.09.344t.056.279l.037-.021q.016-.082.041-.194t.058-.255q.034-.143.076-.317t.093-.378q.051-.2.159-.623t.274-1.051q.165-.632.388-1.478t.5-1.9l.825-.48L11.775,20.3q-.085.312-.177.59t-.19.52q-.1.243-.2.451a4.273,4.273,0,0,1-.214.382,3.686,3.686,0,0,1-.232.326,3.219,3.219,0,0,1-.256.284,2.918,2.918,0,0,1-.28.243,2.767,2.767,0,0,1-.3.2q-.088.05-.175.094t-.174.081q-.087.037-.172.068t-.171.055l.013-.764q.063-.019.13-.045t.138-.058q.071-.032.146-.071t.153-.083a1.836,1.836,0,0,0,.369-.279,2.273,2.273,0,0,0,.314-.385,3.161,3.161,0,0,0,.26-.49,4.62,4.62,0,0,0,.205-.6l.3-1.057Zm7.654,1.9a3.535,3.535,0,0,1-.539.257,1.973,1.973,0,0,1-.477.116,1.209,1.209,0,0,1-.415-.025,1,1,0,0,1-.354-.166,1.143,1.143,0,0,1-.281-.3,1.731,1.731,0,0,1-.2-.43,3.031,3.031,0,0,1-.114-.559,5.329,5.329,0,0,1-.031-.687,7.149,7.149,0,0,1,.048-.74,6.446,6.446,0,0,1,.122-.705,6.02,6.02,0,0,1,.2-.671,5.854,5.854,0,0,1,.272-.637,5.326,5.326,0,0,1,.335-.58,4.453,4.453,0,0,1,.386-.5,3.926,3.926,0,0,1,.436-.419,3.707,3.707,0,0,1,.488-.339,2.783,2.783,0,0,1,.455-.217,1.549,1.549,0,0,1,.4-.091.978.978,0,0,1,.354.034.876.876,0,0,1,.3.16,1.114,1.114,0,0,1,.242.275,1.611,1.611,0,0,1,.171.378,2.665,2.665,0,0,1,.1.481,4.487,4.487,0,0,1,.029.584l-.006.6L15.367,14.43a4.3,4.3,0,0,0,.031.5,2.4,2.4,0,0,0,.083.4,1.3,1.3,0,0,0,.135.306.776.776,0,0,0,.187.21.645.645,0,0,0,.235.114.8.8,0,0,0,.281.017,1.351,1.351,0,0,0,.326-.081,2.482,2.482,0,0,0,.371-.178q.208-.119.415-.265t.413-.317q.206-.171.412-.369t.41-.421l-.009.851q-.1.114-.205.219t-.2.2q-.1.1-.194.182t-.188.163q-.093.077-.195.153t-.213.152q-.111.076-.232.151T16.977,16.568Zm-.145-5.588a2.387,2.387,0,0,0-.293.2,2.448,2.448,0,0,0-.262.243,2.675,2.675,0,0,0-.232.287,3.08,3.08,0,0,0-.2.33,3.637,3.637,0,0,0-.168.364,3.912,3.912,0,0,0-.131.389q-.056.2-.094.415t-.057.44l2.68-1.55a3.79,3.79,0,0,0-.016-.411A2.132,2.132,0,0,0,18,11.353a1.155,1.155,0,0,0-.1-.258.666.666,0,0,0-.141-.181.5.5,0,0,0-.179-.1.565.565,0,0,0-.215-.023.942.942,0,0,0-.25.057A1.768,1.768,0,0,0,16.831,10.98Zm5.792-4.154q.086-.05.168-.093t.159-.08q.077-.036.15-.066t.142-.052l-.115.944q-.08.025-.156.053t-.147.058q-.071.03-.137.064t-.128.069a2.124,2.124,0,0,0-.3.215,2.564,2.564,0,0,0-.281.278,3.274,3.274,0,0,0-.259.342,4.305,4.305,0,0,0-.237.406,4.424,4.424,0,0,0-.2.441,4.036,4.036,0,0,0-.142.447,3.8,3.8,0,0,0-.118.912L21,14.146l-.786.451.055-6.286.645-.375.08,1.108.038-.022q.073-.195.154-.376t.168-.35q.088-.168.182-.323t.2-.3q.1-.142.209-.266t.219-.23a2.7,2.7,0,0,1,.229-.195A2.352,2.352,0,0,1,22.624,6.826ZM28.566,4.65a4.436,4.436,0,0,1,.525-.263,2.557,2.557,0,0,1,.466-.147,1.5,1.5,0,0,1,.407-.03,1.018,1.018,0,0,1,.348.086.887.887,0,0,1,.279.2,1.07,1.07,0,0,1,.2.306,1.741,1.741,0,0,1,.12.413,3.1,3.1,0,0,1,.04.521,4.744,4.744,0,0,1-.044.646,4.566,4.566,0,0,1-.131.626,4.656,4.656,0,0,1-.218.606,5.016,5.016,0,0,1-.306.585,5.187,5.187,0,0,1-.382.547,5.135,5.135,0,0,1-.448.491,5.338,5.338,0,0,1-.514.435,5.806,5.806,0,0,1-.579.379q-.3.171-.559.292a4.268,4.268,0,0,1-.488.194,2.315,2.315,0,0,1-.417.1,1.23,1.23,0,0,1-.346,0l0-.925a1.142,1.142,0,0,0,.177.021,1.553,1.553,0,0,0,.2-.005,2.147,2.147,0,0,0,.219-.031q.114-.022.239-.057t.249-.079q.124-.044.247-.1t.245-.114q.122-.061.244-.131a4.277,4.277,0,0,0,.4-.26,3.8,3.8,0,0,0,.353-.293,3.52,3.52,0,0,0,.306-.326,3.411,3.411,0,0,0,.259-.359,3.13,3.13,0,0,0,.206-.385,3,3,0,0,0,.147-.405,3.061,3.061,0,0,0,.088-.425,3.305,3.305,0,0,0,.03-.444,1.84,1.84,0,0,0-.112-.708.617.617,0,0,0-.338-.356.914.914,0,0,0-.563,0,3.2,3.2,0,0,0-.788.346q-.114.066-.247.153t-.285.2q-.152.109-.323.239t-.362.282L26.7,6.39l.276-4.071L30.457.289v.876L27.653,2.8l-.184,2.62q.138-.113.275-.217t.275-.2q.137-.1.274-.184T28.566,4.65Z" transform="translate(190 250.016)" fill="#fff"></path></g><text id="Services" transform="translate(396 118)" fill="#fff" font-size="16" font-family="OpenSans-Semibold, Open Sans" font-weight="600"><tspan x="-31" y="0">Services</tspan></text><text id="Utilities" transform="translate(395 157)" fill="#fff" font-size="16" font-family="OpenSans-Semibold, Open Sans" font-weight="600"><tspan x="-29" y="0">Utilities</tspan></text><text id="Protocols" transform="translate(401 196)" fill="#fff" font-size="16" font-family="OpenSans-Semibold, Open Sans" font-weight="600"><tspan x="-36" y="0">Protocols</tspan></text><text id="Infrastructure" transform="translate(419 235)" fill="#fff" font-size="16" font-family="OpenSans-Semibold, Open Sans" font-weight="600"><tspan x="-54" y="0">Infrastructure</tspan></text><path id="Path_4496" data-name="Path 4496" d="M-491,91h85.151" transform="translate(748 -18)" fill="none" stroke="#fff" stroke-width="1"></path><path id="Path_4497" data-name="Path 4497" d="M-491,91h85.151" transform="translate(748 21)" fill="none" stroke="#fff" stroke-width="1"></path><path id="Path_4498" data-name="Path 4498" d="M-491,91h85.151" transform="translate(748 60)" fill="none" stroke="#fff" stroke-width="1"></path><path id="Path_4499" data-name="Path 4499" d="M-491,91h85.151" transform="translate(748 99)" fill="none" stroke="#fff" stroke-width="1"></path><path id="Path_4500" data-name="Path 4500" d="M-491,91h85.151" transform="translate(748 138)" fill="none" stroke="#fff" stroke-width="1"></path><circle id="Ellipse_12" data-name="Ellipse 12" cx="4" cy="4" r="4" transform="translate(340 69)" fill="#fff"></circle><circle id="Ellipse_13" data-name="Ellipse 13" cx="4" cy="4" r="4" transform="translate(340 108)" fill="#fff"></circle><circle id="Ellipse_14" data-name="Ellipse 14" cx="4" cy="4" r="4" transform="translate(340 147)" fill="#fff"></circle><circle id="Ellipse_15" data-name="Ellipse 15" cx="4" cy="4" r="4" transform="translate(340 186)" fill="#fff"></circle><circle id="Ellipse_16" data-name="Ellipse 16" cx="4" cy="4" r="4" transform="translate(340 225)" fill="#fff"></circle></g></svg> 