<?xml version="1.0" encoding="UTF-8"?> <svg xmlns="http://www.w3.org/2000/svg" xmlns:xlink="http://www.w3.org/1999/xlink" width="538" height="300" viewBox="0 0 538 300"><defs><clipPath id="clip-path"><rect id="Rectangle_4444" data-name="Rectangle 4444" width="538" height="300" fill="#fff"></rect></clipPath><linearGradient id="linear-gradient" y1="1" x2="1" gradientUnits="objectBoundingBox"><stop offset="0" stop-color="#060825"></stop><stop offset="1" stop-color="#0c1054"></stop></linearGradient></defs><g id="Mask_Group_30" data-name="Mask Group 30" clip-path="url(#clip-path)"><rect id="Rectangle_76" data-name="Rectangle 76" width="538" height="300" fill="url(#linear-gradient)"></rect><text id="Application_Layer" data-name="Application Layer" transform="translate(277 37)" fill="#fff" font-size="16" font-family="OpenSans-Semibold, Open Sans" font-weight="600"><tspan x="-67" y="0">Application Layer</tspan></text><text id="Services_Components" data-name="Services Components" transform="translate(210 87)" fill="#fff" font-size="16" font-family="OpenSans-Semibold, Open Sans" font-weight="600"><tspan x="0" y="0">Services Components</tspan></text><text id="Protocol_Layer" data-name="Protocol Layer" transform="translate(266 137)" fill="#fff" font-size="16" font-family="OpenSans-Semibold, Open Sans" font-weight="600"><tspan x="-55" y="0">Protocol Layer</tspan></text><text id="Network_Layer" data-name="Network Layer" transform="translate(267 187)" fill="#fff" font-size="16" font-family="OpenSans-Semibold, Open Sans" font-weight="600"><tspan x="-56" y="0">Network Layer</tspan></text><text id="Infrastructure_Layer" data-name="Infrastructure Layer" transform="translate(210 237)" fill="#fff" font-size="16" font-family="OpenSans-Semibold, Open Sans" font-weight="600"><tspan x="0" y="0">Infrastructure Layer</tspan></text><path id="Path_4513" data-name="Path 4513" d="M-689.458,65h459.5" transform="translate(767.958 -9)" fill="none" stroke="#206cc6" stroke-width="1"></path><path id="Path_4514" data-name="Path 4514" d="M-689.458,65h459.5" transform="translate(767.958 41)" fill="none" stroke="#206cc6" stroke-width="1"></path><path id="Path_4515" data-name="Path 4515" d="M-689.458,65h459.5" transform="translate(767.958 91)" fill="none" stroke="#206cc6" stroke-width="1"></path><path id="Path_4516" data-name="Path 4516" d="M-689.458,65h459.5" transform="translate(767.958 141)" fill="none" stroke="#206cc6" stroke-width="1"></path><path id="Path_4517" data-name="Path 4517" d="M-689.458,65h459.5" transform="translate(767.958 191)" fill="none" stroke="#206cc6" stroke-width="1"></path><g id="Group_13265" data-name="Group 13265" transform="translate(-261.148 -17.647)"><g id="Group_13263" data-name="Group 13263" transform="translate(141.444 183.198)"><path id="Path_4501" data-name="Path 4501" d="M.183,324.294,146.616,390.9l146.466-66.594L146.375,270.773Z" transform="translate(-0.084 -270.773)" fill="#d1d3d4"></path><path id="Path_4502" data-name="Path 4502" d="M0,399.058,146.608,470.19l-.078-33.427L.1,370.155Z" transform="translate(0 -316.635)" fill="#0f276c"></path><path id="Path_4503" data-name="Path 4503" d="M272.1,436.764l-.078,33.426,146.608-71.132-.1-28.9Z" transform="translate(-125.527 -316.635)" fill="#143fbc"></path></g><g id="Group_13262" data-name="Group 13262" transform="translate(163.769 148.717)"><path id="Path_4501-2" data-name="Path 4501" d="M.183,316.109l124.04,56.423,124.068-56.411L124.019,270.773Z" transform="translate(-0.099 -270.773)" fill="#d1d3d4"></path><path id="Path_4502-2" data-name="Path 4502" d="M0,394.638l124.189,60.255-.066-28.315L.083,370.155Z" transform="translate(0 -324.819)" fill="#0a62a5"></path><path id="Path_4503-2" data-name="Path 4503" d="M272.083,426.578l-.066,28.315,124.189-60.254-.083-24.483Z" transform="translate(-147.929 -324.819)" fill="#0082d2"></path></g><path id="Path_4504" data-name="Path 4504" d="M41.079,214.679l104.809-38.727,105.244,39.069-104.669,47.59Z" transform="translate(141.43 -70.491)" fill="#d1d3d4"></path><path id="Path_4505" data-name="Path 4505" d="M86.537,117.458l84.015-30.311,83.417,31.177-82.785,37.635Z" transform="translate(116.709 -22.197)" fill="#d1d3d4"></path><path id="Path_4506" data-name="Path 4506" d="M199.215,0,136.955,22.172,198.6,50.211,260.451,22.1Z" transform="translate(89.29 25.196)" fill="#d1d3d4"></path><path id="Path_4507" data-name="Path 4507" d="M41.029,285.9,146.5,337.074l-.066-28.315L41.029,260.811Z" transform="translate(141.457 -116.639)" fill="#008cb4"></path><path id="Path_4508" data-name="Path 4508" d="M86.584,179.294,171.307,220.4l-.066-28.315L86.584,153.577Z" transform="translate(116.683 -58.323)" fill="#00aab4"></path><path id="Path_4509" data-name="Path 4509" d="M136.974,75.021l61.7,29.938-.066-28.315L136.974,48.606Z" transform="translate(89.28 -1.238)" fill="#00aa87"></path><path id="Path_4510" data-name="Path 4510" d="M376.729,261.57l-104.645,47.6-.066,28.315,104.711-50.8Z" transform="translate(15.841 -117.052)" fill="#00aae1"></path><path id="Path_4511" data-name="Path 4511" d="M354.845,155.468l-82.761,37.646-.066,28.315,82.827-40.187Z" transform="translate(15.84 -59.351)" fill="#00d7e1"></path><path id="Path_4512" data-name="Path 4512" d="M333.865,48.394l-61.85,28.134-.066,28.315L333.865,74.8Z" transform="translate(15.878 -1.122)" fill="#00d2aa"></path></g><rect id="Rectangle_4439" data-name="Rectangle 4439" width="93" height="32" rx="4" transform="translate(410 15)" fill="#3f42a7"></rect><text id="dApps" transform="translate(436 37)" fill="#fff" font-size="14" font-family="OpenSans, Open Sans"><tspan x="0" y="0">dApps</tspan></text><g id="Group_13266" data-name="Group 13266" transform="translate(0 5)"><rect id="Rectangle_4440" data-name="Rectangle 4440" width="93" height="32" rx="4" transform="translate(410 60)" fill="#3f42a7"></rect><text id="Smart_contract" data-name="Smart contract" transform="translate(457 74)" fill="#fff" font-size="14" font-family="OpenSans, Open Sans"><tspan x="-19" y="0">Smart</tspan><tspan x="-26" y="15">contract</tspan></text></g><g id="Group_13267" data-name="Group 13267"><rect id="Rectangle_4441" data-name="Rectangle 4441" width="93" height="32" rx="4" transform="translate(410 115)" fill="#3f42a7"></rect><text id="EVMs" transform="translate(439 137)" fill="#fff" font-size="14" font-family="OpenSans, Open Sans"><tspan x="0" y="0">EVMs</tspan></text></g><g id="Group_13268" data-name="Group 13268"><rect id="Rectangle_4442" data-name="Rectangle 4442" width="93" height="32" rx="4" transform="translate(410 165)" fill="#3f42a7"></rect><text id="P2P" transform="translate(444 187)" fill="#fff" font-size="14" font-family="OpenSans, Open Sans"><tspan x="0" y="0">P2P</tspan></text></g><g id="Group_13269" data-name="Group 13269"><rect id="Rectangle_4443" data-name="Rectangle 4443" width="93" height="32" rx="4" transform="translate(410 215)" fill="#3f42a7"></rect><text id="Mining" transform="translate(434 237)" fill="#fff" font-size="14" font-family="OpenSans, Open Sans"><tspan x="0" y="0">Mining</tspan></text></g></g></svg> 