<?xml version="1.0" encoding="UTF-8"?> <svg xmlns="http://www.w3.org/2000/svg" xmlns:xlink="http://www.w3.org/1999/xlink" id="Group_13330" data-name="Group 13330" width="538" height="300" viewBox="0 0 538 300"><defs><radialGradient id="radial-gradient" cx="0.5" cy="0.5" r="0.5" gradientUnits="objectBoundingBox"><stop offset="0" stop-color="#0054a3"></stop><stop offset="1" stop-color="#01080e"></stop></radialGradient><clipPath id="clip-path"><rect id="Rectangle_4449" data-name="Rectangle 4449" width="36" height="36" transform="translate(271 1668.837)" fill="#002897" stroke="#707070" stroke-width="1"></rect></clipPath><clipPath id="clip-path-2"><rect id="Rectangle_4447" data-name="Rectangle 4447" width="36" height="36" transform="translate(131 1787.781)" fill="#002897"></rect></clipPath><clipPath id="clip-path-3"><rect id="Rectangle_4452" data-name="Rectangle 4452" width="40" height="40" transform="translate(0.159 0.159)" fill="#002897"></rect></clipPath></defs><rect id="Rectangle_110" data-name="Rectangle 110" width="538" height="300" fill="url(#radial-gradient)"></rect><g id="Group_13306" data-name="Group 13306" transform="translate(5 -7)"><g id="Group_13283" data-name="Group 13283" transform="translate(11 21.593)"><g id="Rectangle_111" data-name="Rectangle 111" transform="translate(206 89.407)" fill="none" stroke="#007fff" stroke-width="1"><rect width="94" height="93" rx="14" stroke="none"></rect><rect x="0.5" y="0.5" width="93" height="92" rx="13.5" fill="none"></rect></g><g id="Rectangle_113" data-name="Rectangle 113" transform="translate(188 71.407)" fill="none" stroke="#0083ff" stroke-width="6" opacity="0.238"><rect width="130" height="129" rx="14" stroke="none"></rect><rect x="3" y="3" width="124" height="123" rx="11" fill="none"></rect></g><g id="Group_609" data-name="Group 609" transform="translate(227.385 107.974)"><g id="Group_608" data-name="Group 608" transform="translate(10.502 17.297)"><path id="Path_606" data-name="Path 606" d="M316.579,168.958a.952.952,0,0,0-1.21.653L309.6,188.839a.961.961,0,0,0,1.782.723.973.973,0,0,0,.051-.167l5.768-19.228a.961.961,0,0,0-.623-1.209Z" transform="translate(-298.017 -168.912)" fill="#fff"></path><path id="Path_607" data-name="Path 607" d="M198.487,184.319a.964.964,0,0,0-1.378.052l-7.691,8.172a.962.962,0,0,0,0,1.307l7.691,8.172a.962.962,0,0,0,1.412-1.307l-7.076-7.511,7.075-7.526a.962.962,0,0,0-.034-1.36Z" transform="translate(-189.162 -182.606)" fill="#fff"></path><path id="Path_608" data-name="Path 608" d="M411.888,184.356a.962.962,0,1,0-1.412,1.307l7.075,7.526-7.075,7.511a.962.962,0,0,0,1.412,1.307l7.691-8.172a.962.962,0,0,0,0-1.307Z" transform="translate(-389.069 -182.592)" fill="#fff"></path></g><g id="Group_607" data-name="Group 607" transform="translate(0 0)"><path id="Path_645" data-name="Path 645" d="M243.877,143.294a.984.984,0,0,0-.116-.35l-.1-.151-.21-.21h-.175l-7.148-2.869a.986.986,0,0,0-.735,1.831l4.4,1.667a25.653,25.653,0,0,0,2.716,49.755h.175a.98.98,0,0,0,.187-1.947,23.682,23.682,0,0,1-2.146-46.058l-2.845,4.337h0a.981.981,0,1,0,1.644,1.073l4.245-6.425v-.059a1.022,1.022,0,0,0,.07-.116.932.932,0,0,0,0-.094,1,1,0,0,0,0-.373Z" transform="translate(-221.591 -139.643)" fill="#fff"></path><path id="Path_646" data-name="Path 646" d="M389.2,178.815a25.652,25.652,0,0,0-20.989-25.21.979.979,0,1,0-.338,1.889,23.682,23.682,0,0,1,2.146,46.058l2.845-4.337h0a.981.981,0,1,0-1.644-1.073l-4.244,6.425a.51.51,0,0,1-.093.175.64.64,0,0,0,0,.094.977.977,0,0,0,.081.734l.1.152.21.21h.116l7.148,2.869h0a.986.986,0,0,0,.735-1.831L370.95,203.3A25.653,25.653,0,0,0,389.2,178.815Z" transform="translate(-337.809 -150.759)" fill="#fff"></path></g></g></g></g><rect id="Rectangle_116" data-name="Rectangle 116" width="46" height="46" rx="6" transform="translate(115 119)" fill="#004284"></rect><g id="Rectangle_117" data-name="Rectangle 117" transform="translate(115 177)" fill="none" stroke="#004389" stroke-width="1"><rect width="46" height="46" rx="6" stroke="none"></rect><rect x="0.5" y="0.5" width="45" height="45" rx="5.5" fill="none"></rect></g><g id="Rectangle_123" data-name="Rectangle 123" transform="translate(465 15)" fill="none" stroke="#004386" stroke-width="1"><rect width="46" height="46" rx="6" stroke="none"></rect><rect x="0.5" y="0.5" width="45" height="45" rx="5.5" fill="none"></rect></g><rect id="Rectangle_120" data-name="Rectangle 120" width="46" height="47" rx="6" transform="translate(199 238)" fill="#004284"></rect><rect id="Rectangle_119" data-name="Rectangle 119" width="46" height="47" rx="6" transform="translate(257 238)" fill="#004284"></rect><g id="Rectangle_118" data-name="Rectangle 118" transform="translate(315 238)" fill="none" stroke="#004386" stroke-width="1"><rect width="46" height="47" rx="6" stroke="none"></rect><rect x="0.5" y="0.5" width="45" height="46" rx="5.5" fill="none"></rect></g><g id="Mask_Group_34" data-name="Mask Group 34" transform="translate(-151 -1544.837)" clip-path="url(#clip-path)"><g id="Group_13279" data-name="Group 13279" transform="translate(272.347 1669.512)"><path id="Path_4560" data-name="Path 4560" d="M348.14,40.75l.17.505a27.1,27.1,0,0,1,1.412,8.4l0,.355,4.826,2.069a1.023,1.023,0,0,0,.8,0l4.825-2.068,0-.355a27.106,27.106,0,0,1,1.412-8.4l.17-.505-6.813-2.473Zm11,8.542-3.668,1.572v-3H354.43v3l-3.668-1.572a28.206,28.206,0,0,0-1.3-7.882l4.966-1.8v7.177h1.046V39.608l4.966,1.8a28.208,28.208,0,0,0-1.3,7.882Z" transform="translate(-331.945 -35.996)" fill="#fff" stroke="#004285" stroke-width="0.2"></path><path id="Path_4561" data-name="Path 4561" d="M91.684,0l-9.6,3.484.23.532A24.838,24.838,0,0,1,83.8,8.638H70.245a1.593,1.593,0,0,0-1.569,1.614V31.766a1.593,1.593,0,0,0,1.569,1.614H97.436A1.593,1.593,0,0,0,99,31.766V13.935a24.847,24.847,0,0,1,2.047-9.919l.23-.532ZM70.245,9.714H84a25.018,25.018,0,0,1,.336,3.227H69.722V10.252a.531.531,0,0,1,.523-.538ZM97.959,31.766a.531.531,0,0,1-.523.538H70.245a.531.531,0,0,1-.523-.538V14.017H84.364v1.434l6.114,2.62a3.055,3.055,0,0,0,2.414,0L97.96,15.9Zm0-17.831v.8l-5.471,2.344a2.048,2.048,0,0,1-1.609,0l-5.471-2.344v-.8A25.95,25.95,0,0,0,83.5,4.114l8.188-2.973,8.188,2.972a25.951,25.951,0,0,0-1.913,9.822Z" transform="translate(-68.676)" fill="#fff" stroke="#004285" stroke-width="0.2"></path><path id="Path_4562" data-name="Path 4562" d="M104.77,181.02h1.046V182.1H104.77Z" transform="translate(-102.678 -170.23)" fill="#fff" stroke="#004285" stroke-width="0.2"></path><path id="Path_4563" data-name="Path 4563" d="M176.96,181.02h1.046V182.1H176.96Z" transform="translate(-170.685 -170.23)" fill="#fff" stroke="#004285" stroke-width="0.2"></path><path id="Path_4564" data-name="Path 4564" d="M140.86,181.02h1.046V182.1H140.86Z" transform="translate(-136.677 -170.23)" fill="#fff" stroke="#004285" stroke-width="0.2"></path><path id="Path_4565" data-name="Path 4565" d="M111.568,253.2a6.995,6.995,0,1,0,6.8,6.992A6.9,6.9,0,0,0,111.568,253.2Zm0,12.908c-.562,0-1.161-.821-1.573-2.151h3.147C112.729,265.287,112.13,266.108,111.568,266.108Zm-1.84-3.227a13.715,13.715,0,0,1-.241-2.151h4.161a13.741,13.741,0,0,1-.241,2.151Zm-3.885-2.151h2.6a15.14,15.14,0,0,0,.214,2.151H106.45a5.987,5.987,0,0,1-.608-2.151Zm5.725-6.454c.562,0,1.161.821,1.573,2.151h-3.147C110.407,255.1,111.006,254.276,111.568,254.276Zm1.84,3.227a13.716,13.716,0,0,1,.241,2.151h-4.161a13.742,13.742,0,0,1,.241-2.151Zm-4.966,2.151h-2.6a5.986,5.986,0,0,1,.609-2.151h2.2a15.068,15.068,0,0,0-.214,2.151Zm6.252,1.076h2.6a5.986,5.986,0,0,1-.609,2.151h-2.2a15.084,15.084,0,0,0,.214-2.151Zm0-1.076a15.144,15.144,0,0,0-.214-2.151h2.2a6,6,0,0,1,.609,2.151ZM116,256.427h-1.764a7.549,7.549,0,0,0-.727-1.8,5.779,5.779,0,0,1,2.491,1.8Zm-6.376-1.8a7.575,7.575,0,0,0-.727,1.8h-1.764a5.775,5.775,0,0,1,2.492-1.8Zm-2.492,9.327H108.9a7.548,7.548,0,0,0,.727,1.8,5.787,5.787,0,0,1-2.491-1.8Zm6.376,1.8a7.575,7.575,0,0,0,.727-1.8H116a5.772,5.772,0,0,1-2.491,1.8Z" transform="translate(-102.678 -238.108)" fill="#fff" stroke="#004285" stroke-width="0.2"></path><path id="Path_4566" data-name="Path 4566" d="M104.77,505.86h1.046v1.076H104.77Z" transform="translate(-102.678 -475.708)" fill="#fff" stroke="#004285" stroke-width="0.2"></path><path id="Path_4567" data-name="Path 4567" d="M140.86,505.86h10.981v1.076H140.86Z" transform="translate(-136.677 -475.708)" fill="#fff" stroke="#004285" stroke-width="0.2"></path><path id="Path_4568" data-name="Path 4568" d="M357.43,328.616h11.5v-3.227h-11.5Zm1.046-2.151h9.412v1.076h-9.412Z" transform="translate(-340.697 -305.994)" fill="#fff" stroke="#004285" stroke-width="0.2"></path><path id="Path_4569" data-name="Path 4569" d="M357.43,433.67h1.046v1.076H357.43Z" transform="translate(-340.697 -407.821)" fill="#fff" stroke="#004285" stroke-width="0.2"></path><path id="Path_4570" data-name="Path 4570" d="M393.52,433.67h9.412v1.076H393.52Z" transform="translate(-374.695 -407.821)" fill="#fff" stroke="#004285" stroke-width="0.2"></path><path id="Path_4571" data-name="Path 4571" d="M357.43,469.77h11.5v1.076h-11.5Z" transform="translate(-340.697 -441.769)" fill="#fff" stroke="#004285" stroke-width="0.2"></path><path id="Path_4572" data-name="Path 4572" d="M357.43,505.86h11.5v1.076h-11.5Z" transform="translate(-340.697 -475.708)" fill="#fff" stroke="#004285" stroke-width="0.2"></path><path id="Path_4573" data-name="Path 4573" d="M357.43,397.58h11.5v1.076h-11.5Z" transform="translate(-340.697 -373.882)" fill="#fff" stroke="#004285" stroke-width="0.2"></path></g></g><g id="Mask_Group_32" data-name="Mask Group 32" transform="translate(73 -1543.781)" clip-path="url(#clip-path-2)"><g id="Group_13277" data-name="Group 13277" transform="translate(133.082 1789.122)"><path id="Path_4551" data-name="Path 4551" d="M137.742,105.973a2.649,2.649,0,0,1,2.675-2.675v-1.07a3.722,3.722,0,0,0-3.745,3.745Z" transform="translate(-132.927 -96.397)" fill="#fff"></path><path id="Path_4552" data-name="Path 4552" d="M106.01,17.214a5.876,5.876,0,0,0-5.4-5.992A9.082,9.082,0,0,0,84.4,9.618a5.512,5.512,0,0,0-2.461-.535,5.868,5.868,0,0,0-5.885,5.885A5.46,5.46,0,0,0,76.426,17a4.789,4.789,0,0,0,2.835,8.667h2.675V24.6H79.262a3.722,3.722,0,0,1-3.745-3.745,4,4,0,0,1,2.247-3.477,5.541,5.541,0,0,1-.642-2.461A4.8,4.8,0,0,1,81.936,10.1a5.49,5.49,0,0,1,2.835.909S87.019,6.354,92.1,6.354c6.1,0,7.757,5.885,7.757,5.885a4.88,4.88,0,0,1,5.082,5.457,3.8,3.8,0,0,1,1.658,3.1,3.722,3.722,0,0,1-3.745,3.745h-2.675v1.07h2.675a4.8,4.8,0,0,0,4.815-4.815,5.034,5.034,0,0,0-1.658-3.584Z" transform="translate(-74.447 -5.338)" fill="#fff"></path><path id="Path_4553" data-name="Path 4553" d="M215.754,102.077a8.584,8.584,0,0,0-8.132,8.185,8.355,8.355,0,0,0,2.086,5.938,9.353,9.353,0,0,1,2.193,6.1,1.533,1.533,0,0,0-.535,1.177,1.5,1.5,0,0,0,.428,1.07,1.494,1.494,0,0,0-.428,1.07,1.61,1.61,0,0,0,1.605,1.605,1.9,1.9,0,0,0-.107.535,1.576,1.576,0,0,0,1.605,1.605h3.424a1.57,1.57,0,0,0,1.5-2.14A1.646,1.646,0,0,0,221,125.616a1.5,1.5,0,0,0-.428-1.07,1.494,1.494,0,0,0,.428-1.07,1.533,1.533,0,0,0-.535-1.177,9.88,9.88,0,0,1,2.3-6.206,8.524,8.524,0,0,0-.7-11.663,8.461,8.461,0,0,0-6.313-2.354Zm.428,13.909a1.07,1.07,0,1,1,1.07-1.07A1.073,1.073,0,0,1,216.182,115.987Zm-3.745,7.49a.506.506,0,0,1,.535-.535h6.42a.535.535,0,0,1,0,1.07h-6.42A.506.506,0,0,1,212.437,123.477Zm5.457,4.815H214.47a.535.535,0,0,1,0-1.07h3.424a.535.535,0,0,1,0,1.07Zm1.5-2.14h-6.42a.535.535,0,0,1,0-1.07h6.42a.535.535,0,0,1,0,1.07ZM221.96,115.4a10.726,10.726,0,0,0-2.514,6.473h-2.675V117a2.146,2.146,0,1,0-2.675-2.086A2.182,2.182,0,0,0,215.7,117v4.868h-2.675a10.318,10.318,0,0,0-2.461-6.366,7.61,7.61,0,0,1-1.819-5.189,7.493,7.493,0,0,1,7.115-7.169,7.285,7.285,0,0,1,5.51,2.086,7.447,7.447,0,0,1,2.3,5.4,7.324,7.324,0,0,1-1.712,4.761Z" transform="translate(-199.598 -96.246)" fill="#fff"></path></g></g><g id="Group_13308" data-name="Group 13308"><rect id="Rectangle_122" data-name="Rectangle 122" width="46" height="46" rx="6" transform="translate(409 15)" fill="#004284"></rect><g id="Mask_Group_37" data-name="Mask Group 37" transform="translate(412.841 18.841)" clip-path="url(#clip-path-3)"><g id="Group_13281" data-name="Group 13281" transform="translate(2.083 2.209)"><path id="Path_4585" data-name="Path 4585" d="M118.01,33.6a.8.8,0,0,0-.729.8v3.445a14.221,14.221,0,0,0-2.665,1.194l-2.4-2.4h0a.8.8,0,0,0-1.131,0l-4.425,4.425a.8.8,0,0,0,0,1.144l2.389,2.389a14.107,14.107,0,0,0-1.182,2.678h-3.457a.8.8,0,0,0-.8.8V54.52a.8.8,0,0,0,.8.8h3.457a14.192,14.192,0,0,0,1.182,2.665l-2.389,2.389a.8.8,0,0,0,0,1.144l4.425,4.425a.8.8,0,0,0,1.131,0l2.4-2.4a14.214,14.214,0,0,0,2.665,1.182V68.2h0a.8.8,0,0,0,.8.8h6.437a.8.8,0,0,0,.8-.8v-3.47a14.228,14.228,0,0,0,2.665-1.182l2.4,2.4h0a.8.8,0,0,0,1.131,0l4.425-4.425a.8.8,0,0,0,0-1.144l-2.389-2.389a14.177,14.177,0,0,0,1.182-2.665H138.2a.8.8,0,0,0,.8-.8V48.084a.8.8,0,0,0-.8-.8h-3.457a14.105,14.105,0,0,0-1.182-2.678l2.389-2.389a.8.8,0,0,0,0-1.144l-4.425-4.425a.8.8,0,0,0-1.131,0l-2.4,2.4a14.239,14.239,0,0,0-2.665-1.194V34.407h0a.8.8,0,0,0-.8-.8h-6.437c-.025,0-.05,0-.075,0Zm.88,1.609h4.827v3.206h0a.8.8,0,0,0,.616.779,12.788,12.788,0,0,1,3.394,1.521.8.8,0,0,0,.98-.113l2.25-2.25,3.294,3.294L132,43.885a.8.8,0,0,0-.126.993,12.781,12.781,0,0,1,1.521,3.394.8.8,0,0,0,.779.616h3.218v4.827h-3.218a.8.8,0,0,0-.779.6,12.846,12.846,0,0,1-1.521,3.407h0a.8.8,0,0,0,.126.98l2.25,2.25-3.294,3.281-2.25-2.25h0a.8.8,0,0,0-.98-.113,12.743,12.743,0,0,1-3.394,1.509.8.8,0,0,0-.616.792v3.218H118.89V64.175h0a.8.8,0,0,0-.616-.792,12.734,12.734,0,0,1-3.394-1.509.8.8,0,0,0-.98.113l-2.25,2.25-3.294-3.281,2.25-2.25h0a.8.8,0,0,0,.126-.98,12.854,12.854,0,0,1-1.521-3.407h0a.8.8,0,0,0-.779-.6h-3.218V48.889h3.218a.8.8,0,0,0,.779-.616,12.775,12.775,0,0,1,1.521-3.394.8.8,0,0,0-.126-.993l-2.25-2.238,3.294-3.294,2.25,2.25a.8.8,0,0,0,.98.113,12.788,12.788,0,0,1,3.394-1.521.8.8,0,0,0,.616-.779Zm2.414,6.034A10.057,10.057,0,1,0,131.361,51.3,10.069,10.069,0,0,0,121.3,41.245Zm0,1.609A8.444,8.444,0,0,1,124.12,59.26V55.765a5.98,5.98,0,0,0-.49-10.836h0a.8.8,0,0,0-1.119.742v4.438l-1.207.968-1.207-.968V45.67a.791.791,0,0,0-1.119-.742,5.98,5.98,0,0,0-.49,10.836V59.26A8.444,8.444,0,0,1,121.3,42.854Zm-2.816,4.224V50.5a.8.8,0,0,0,.3.629l2.011,1.609h0a.805.805,0,0,0,1.006,0l2.011-1.609h0a.8.8,0,0,0,.3-.629V47.078A4.429,4.429,0,0,1,123,54.583h0a.8.8,0,0,0-.49.742v4.337a8.31,8.31,0,0,1-2.414,0V55.325a.8.8,0,0,0-.49-.742,4.429,4.429,0,0,1-1.119-7.505Z" transform="translate(-103.603 -33.601)" fill="#fff" stroke="#002897" stroke-width="0.4"></path></g></g></g><g id="Group_13278" data-name="Group 13278" transform="translate(264.062 246.653)"><path id="Path_4554" data-name="Path 4554" d="M304.958,415.31h-3.764a.3.3,0,1,0,0,.6h3.764a.3.3,0,0,0,0-.6Z" transform="translate(-287.645 -391.304)" fill="#fff" stroke="#fff" stroke-width="0.4"></path><path id="Path_4555" data-name="Path 4555" d="M126.141,40.733a1.672,1.672,0,0,0-1.114-.425H112.106a1.679,1.679,0,0,0-1.678,1.678V42.9H95.709a1.793,1.793,0,0,0-1.791,1.791V64.677a1.793,1.793,0,0,0,1.791,1.791h10.579l-.81,3.932H103.1a.3.3,0,1,0,0,.6h12.488a.3.3,0,1,0,0-.6H113.22l-.811-3.932h10.579a1.793,1.793,0,0,0,1.791-1.791V50.658h.249a1.68,1.68,0,0,0,1.677-1.678V41.986a1.685,1.685,0,0,0-.565-1.253Zm-14.036,9.923h1.963l0,2.907a.2.2,0,0,0,0,.022.293.293,0,0,0,0,.03c0,.01.005.02.007.03s0,.017.008.026a.236.236,0,0,0,.013.029.247.247,0,0,0,.012.023c.007.01.014.019.021.028l.011.014,0,0a.373.373,0,0,0,.032.028l.014.012a.323.323,0,0,0,.042.023l.011.006a.3.3,0,0,0,.117.024h0a.325.325,0,0,0,.056-.006l.021-.006a.3.3,0,0,0,.034-.011.2.2,0,0,0,.022-.011l.028-.015.022-.017a.185.185,0,0,0,.018-.014l3.4-3.127h4.682V62.826h-9.838a6.622,6.622,0,0,0-13.231,0H96.042V45.146h14.386v3.833a1.68,1.68,0,0,0,1.678,1.677Zm.114,12.171H100.183a6.025,6.025,0,0,1,12.036,0Zm.39,7.572h-6.522l.81-3.932h4.9Zm11.573-5.723a1.2,1.2,0,0,1-1.194,1.194H95.709a1.2,1.2,0,0,1-1.194-1.194V44.689A1.2,1.2,0,0,1,95.709,43.5h14.719v1.054H95.744a.3.3,0,0,0-.3.3V63.127a.3.3,0,0,0,.3.3h27.211a.3.3,0,0,0,.3-.3V50.657h.929V64.677Zm1.926-15.7a1.082,1.082,0,0,1-1.081,1.081H117.84l-.037,0-.023.006-.033.01-.023.011a.264.264,0,0,0-.03.016l-.021.016-.021.015-2.987,2.747,0-2.527a.3.3,0,0,0-.3-.3H112.1a1.082,1.082,0,0,1-1.081-1.08V44.851s0,0,0,0V43.2s0,0,0,0V41.986a1.082,1.082,0,0,1,1.081-1.081h12.922a1.084,1.084,0,0,1,1.081,1.08v6.993Z" transform="translate(-93.918 -40.308)" fill="#fff" stroke="#fff" stroke-width="0.4"></path><path id="Path_4556" data-name="Path 4556" d="M245.808,201.6a2.672,2.672,0,1,0,2.735,2.671A2.707,2.707,0,0,0,245.808,201.6Zm0,4.744a2.075,2.075,0,1,1,2.138-2.074,2.109,2.109,0,0,1-2.138,2.074Z" transform="translate(-233.525 -191.275)" fill="#fff" stroke="#fff" stroke-width="0.4"></path><path id="Path_4557" data-name="Path 4557" d="M525.12,97.281a1.327,1.327,0,1,0,1.327,1.326A1.328,1.328,0,0,0,525.12,97.281Zm0,2.056a.73.73,0,1,1,.729-.73A.731.731,0,0,1,525.12,99.337Z" transform="translate(-496.275 -93.634)" fill="#fff" stroke="#fff" stroke-width="0.4"></path><path id="Path_4558" data-name="Path 4558" d="M459.567,97.281a1.327,1.327,0,1,0,1.327,1.326A1.328,1.328,0,0,0,459.567,97.281Zm0,2.056a.73.73,0,1,1,.73-.73A.73.73,0,0,1,459.567,99.337Z" transform="translate(-434.919 -93.634)" fill="#fff" stroke="#fff" stroke-width="0.4"></path><path id="Path_4559" data-name="Path 4559" d="M394.007,97.281a1.327,1.327,0,1,0,1.326,1.326A1.328,1.328,0,0,0,394.007,97.281Zm0,2.056a.73.73,0,1,1,.729-.73A.73.73,0,0,1,394.007,99.337Z" transform="translate(-373.556 -93.634)" fill="#fff" stroke="#fff" stroke-width="0.4"></path></g><g id="Group_13307" data-name="Group 13307" transform="translate(0 1.24)"><rect id="Rectangle_121" data-name="Rectangle 121" width="46" height="46" rx="6" transform="translate(353 14.76)" fill="#004284"></rect><g id="Group_13284" data-name="Group 13284" transform="translate(359.087 21.087)"><g id="noun-integration-4112454"><path id="Path_4575" data-name="Path 4575" d="M121.793,68.586a16.793,16.793,0,1,1,16.793-16.793A16.812,16.812,0,0,1,121.793,68.586Zm0-31.187a14.394,14.394,0,1,0,14.394,14.394A14.41,14.41,0,0,0,121.793,37.4Z" transform="translate(-105 -35)" fill="#fff" stroke="#004285" stroke-width="1"></path><path id="Path_4576" data-name="Path 4576" d="M203.3,68.585a1.2,1.2,0,0,1-1.2-1.2v-7.2h-1.2v1.2a1.2,1.2,0,0,1-1.949.937l-6-4.8a1.2,1.2,0,0,1,0-1.874l6-4.8a1.2,1.2,0,0,1,1.949.937v1.2h1.2v-3.6a1.2,1.2,0,0,1,1.2-1.2h3.6a1.2,1.2,0,0,1,1.2,1.106l2.881-2.305-2.881-2.305a1.2,1.2,0,0,1-1.2,1.106h-3.6a1.2,1.2,0,0,1-1.2-1.2V36.2a1.2,1.2,0,1,1,2.4,0v7.2h1.2V42.2a1.2,1.2,0,0,1,1.949-.937l6,4.8a1.2,1.2,0,0,1,0,1.874l-6,4.8a1.2,1.2,0,0,1-1.949-.937v-1.2h-1.2v3.6a1.2,1.2,0,0,1-1.2,1.2h-3.6a1.2,1.2,0,0,1-1.2-1.106L195.62,56.59,198.5,58.9a1.2,1.2,0,0,1,1.2-1.106h3.6a1.2,1.2,0,0,1,1.2,1.2v8.4A1.2,1.2,0,0,1,203.3,68.585Z" transform="translate(-186.503 -34.999)" fill="#fff" stroke="#004285" stroke-width="1"></path></g></g></g><text id="Consulting" transform="translate(250 231)" fill="#fff" font-size="12" font-family="OpenSans, Open Sans"><tspan x="0" y="0">Consulting</tspan></text><text id="Software_integration" data-name="Software integration" transform="translate(345 32)" fill="#fff" font-size="12" font-family="OpenSans, Open Sans"><tspan x="-49" y="0">Software</tspan><tspan x="-61" y="17">integration</tspan></text><text id="Maintenance" transform="translate(469 78)" fill="#fff" font-size="12" font-family="OpenSans, Open Sans"><tspan x="-72" y="0">Maintenance</tspan></text><text id="Cloud-based_solutions" data-name="Cloud-based solutions" transform="translate(191 259)" fill="#fff" font-size="12" font-family="OpenSans, Open Sans"><tspan x="-70" y="0">Cloud-based</tspan><tspan x="-50" y="17">solutions</tspan></text><text id="Cybersecurity" transform="translate(35 146)" fill="#fff" font-size="12" font-family="OpenSans, Open Sans"><tspan x="0" y="0">Cybersecurity</tspan></text><path id="Path_4692" data-name="Path 4692" d="M-372,80v24.475h-54.01" transform="translate(748 -18)" fill="none" stroke="#004285" stroke-width="1"></path><path id="Path_4693" data-name="Path 4693" d="M-316,33V25.273H-494.94V104.2" transform="translate(748 -18)" fill="none" stroke="#004285" stroke-width="1"></path><path id="Path_4694" data-name="Path 4694" d="M-587,163.29h43" transform="translate(748 -18)" fill="none" stroke="#004285" stroke-width="1"></path><path id="Path_4695" data-name="Path 4695" d="M-526,256V233.145" transform="translate(748 -18)" fill="none" stroke="#004285" stroke-width="1"></path><path id="Path_4696" data-name="Path 4696" d="M-467.544,303v8.158h93.836V218.839h-40.567" transform="translate(748 -18)" fill="none" stroke="#004285" stroke-width="1"></path></svg> 