<?xml version="1.0" encoding="UTF-8"?> <svg xmlns="http://www.w3.org/2000/svg" xmlns:xlink="http://www.w3.org/1999/xlink" id="Group_13414" data-name="Group 13414" width="538" height="300" viewBox="0 0 538 300"><defs><radialGradient id="radial-gradient" cx="0.5" cy="0.793" r="0.416" gradientUnits="objectBoundingBox"><stop offset="0" stop-color="#00147e"></stop><stop offset="0.09" stop-color="#001378"></stop><stop offset="1" stop-color="#020b3a"></stop></radialGradient></defs><rect id="Rectangle_4474" data-name="Rectangle 4474" width="538" height="300" fill="url(#radial-gradient)"></rect><g id="Group_13413" data-name="Group 13413" transform="translate(10)"><g id="Group_13412" data-name="Group 13412"><g id="Group_13410" data-name="Group 13410"><text id="Smart_Home" data-name="Smart Home" transform="translate(415 63)" fill="#fff" font-size="12" font-family="Roboto-Regular, Roboto"><tspan x="0" y="0">Smart Home</tspan></text><text id="Agriculture" transform="translate(420 247)" fill="#fff" font-size="12" font-family="Roboto-Regular, Roboto"><tspan x="0" y="0">Agriculture</tspan></text><g id="Group_13402" data-name="Group 13402" transform="translate(30 43)"><g id="Rectangle_4477" data-name="Rectangle 4477" transform="translate(386 31)" fill="none" stroke="#1c40ff" stroke-width="1"><rect width="65" height="65" rx="6" stroke="none"></rect><rect x="0.5" y="0.5" width="64" height="64" rx="5.5" fill="none"></rect></g><g id="Group_13401" data-name="Group 13401" transform="translate(552.114 -23.934)"><path id="Path_5608" data-name="Path 5608" d="M14.75,83.758" transform="translate(-167.047 21.645)" fill="#fff"></path><path id="Path_5609" data-name="Path 5609" d="M20.344,88.459" transform="translate(-169.695 19.419)" fill="#fff"></path><path id="Path_5610" data-name="Path 5610" d="M81.128,88.459" transform="translate(-198.474 19.419)" fill="#fff"></path><path id="Path_5611" data-name="Path 5611" d="M86.116,83.655" transform="translate(-200.836 21.694)" fill="#fff"></path><path id="Path_5612" data-name="Path 5612" d="M50,54.166H40.662a1.026,1.026,0,0,0-.963,1.079V74.587a1.026,1.026,0,0,0,.963,1.08H50a1.026,1.026,0,0,0,.963-1.08V55.245A1.026,1.026,0,0,0,50,54.166ZM45.33,74.983a.78.78,0,1,1,.779-.779A.78.78,0,0,1,45.33,74.983Zm4.755-2.92a.444.444,0,0,1-.38.488h-8.75a.444.444,0,0,1-.381-.488V55.82a.445.445,0,0,1,.381-.489H49.7a.445.445,0,0,1,.38.489Z" transform="translate(-178.859 35.656)" fill="#fff"></path><path id="Path_5613" data-name="Path 5613" d="M52.287,25.342,32.458,6.558l0,0L31.124,5.348a1.4,1.4,0,0,0-1.843,0L27.95,6.557h0L7.883,25.364a1.107,1.107,0,0,0,0,1.673l1.432,1.308a1.4,1.4,0,0,0,1.843,0l.266-.241V46.95a1.994,1.994,0,0,0,1.995,2h9.9V30.659a1.22,1.22,0,0,1,1.152-1.278H35.7a1.22,1.22,0,0,1,1.152,1.278V48.945H47.007a1.994,1.994,0,0,0,1.994-2V28.066l.31.28a1.4,1.4,0,0,0,1.843,0l1.133-1.33A1.107,1.107,0,0,0,52.287,25.342ZM31.948,26.973a2.683,2.683,0,0,0-3.686-.082l-1.109-1.177a4.283,4.283,0,0,1,5.9.077ZM34.3,24.45a6.133,6.133,0,0,0-8.412-.074L24.779,23.2a7.742,7.742,0,0,1,10.627.067Zm2.4-2.576a9.638,9.638,0,0,0-13.229-.059l-1.113-1.178a11.254,11.254,0,0,1,15.447.054Z" transform="translate(-163.615 58.933)" fill="#fff"></path></g></g><g id="Group_13406" data-name="Group 13406" transform="translate(30 43)"><g id="Rectangle_4480" data-name="Rectangle 4480" transform="translate(386 118)" fill="none" stroke="#1c40ff" stroke-width="1"><rect width="65" height="65" rx="6" stroke="none"></rect><rect x="0.5" y="0.5" width="64" height="64" rx="5.5" fill="none"></rect></g><g id="Group_13405" data-name="Group 13405" transform="translate(578.419 -69.22)"><path id="Path_5614" data-name="Path 5614" d="M42.031,31.154h0a.48.48,0,0,0-.133-.5c-.169-.168-.39-.192-1.813-.192H39.53c2.353-1.271,2.4-4.441,2.094-4.659a5.674,5.674,0,0,0-3.3,1.514,4.4,4.4,0,0,0-1.063,1.429,7.84,7.84,0,0,0-1.526-1.882,4.4,4.4,0,0,0-2.783-.948,4.523,4.523,0,0,0,1.086,3.593,6.145,6.145,0,0,0,1.473,1.247l-.071.011a26.044,26.044,0,0,0-4.054,1.1,5.527,5.527,0,0,0,.943-3.419,4.907,4.907,0,0,0-3.269,1.537,5.7,5.7,0,0,0-1.063,1.429,7.014,7.014,0,0,0-1.7-2,3.758,3.758,0,0,0-2.607-.829c-.09.071.177,3.15,2.026,4.473A32.382,32.382,0,0,0,20.4,31.471a5.4,5.4,0,0,0,2.8-5.129,5.61,5.61,0,0,0-3.269,1.537,4.786,4.786,0,0,0-1.063,1.429,6.205,6.205,0,0,0-1.526-1.882,4.322,4.322,0,0,0-2.784-.948,5.288,5.288,0,0,0,2.108,4.531h-.384c-1.437,0-1.921,0-1.921.553a.427.427,0,0,0,.363.455c.042,0,.654,0,1.35-.007h.1a24.79,24.79,0,0,1,7.922,1.509c.854.285,1.771.654,2.235.857-.359.258-.92.625-1.1.726-.089-.031-.267-.1-.515-.2a35.986,35.986,0,0,0-3.572-1.172,6.3,6.3,0,0,0-1.084-.177c-.3-.008-.444-.013-.568.107a.424.424,0,0,0-.11.327c0,.4.285.454.679.527a32.978,32.978,0,0,1,4.276,1.263,18.332,18.332,0,0,0-1.636,1.4c-.284.271-.535.561-.444.841a.437.437,0,0,0,.4.29.48.48,0,0,0,.082.008c.227,0,.425-.154.786-.5a25.419,25.419,0,0,1,6.974-4.469,21.447,21.447,0,0,1,3.755-1.3,20.47,20.47,0,0,1,5.711-.6C41.739,31.434,41.924,31.433,42.031,31.154ZM29.005,38.706a.393.393,0,0,1-.186-.045.413.413,0,0,1-.207-.4c0-.647,2.555-1.832,3.187-2.091a24.018,24.018,0,0,1,2.868-.859c.3-.051.419-.07.6.059a.451.451,0,0,1,.182.466c-.038.272-.3.353-1.2.589h0a13.389,13.389,0,0,0-4.3,1.823C29.444,38.585,29.2,38.706,29.005,38.706Zm8.559-5.16a21.35,21.35,0,0,0-5.208,1.286c-.99.405-2.635,1.167-3.2,1.482a28.14,28.14,0,0,0-4.088,2.931c-.258.257-.447.406-.656.406a.474.474,0,0,1-.06,0,.463.463,0,0,1-.342-.273c-.166-.294.035-.515.23-.729a24.177,24.177,0,0,1,5-3.493,36.155,36.155,0,0,1,3.742-1.622,29.11,29.11,0,0,1,3.955-.9c1.447-.178,1.808-.146,1.935.168a.412.412,0,0,1-.024.371C38.708,33.4,38.39,33.465,37.564,33.546ZM26.958,12.278c.306.737.36,1.059.212,1.274a.416.416,0,0,1-.374.175.338.338,0,0,1-.117-.025c-.146-.06-.274-.207-.538-.809-.4-.934-.5-1.283-.272-1.517a.389.389,0,0,1,.36-.134C26.5,11.281,26.675,11.595,26.958,12.278Zm1.766,1.678a2.723,2.723,0,0,1,1.993,1.661A2.826,2.826,0,0,1,30,18.577a3.233,3.233,0,0,1-1.667.726,2.665,2.665,0,0,1-1.2-.209,2.334,2.334,0,0,1-.88-.614,2.655,2.655,0,0,1-.655-1.582,2.717,2.717,0,0,1,.884-2.225A2.92,2.92,0,0,1,28.725,13.956ZM27.007,19.75a.43.43,0,0,0-.474.018,7.187,7.187,0,0,0-.834,2.019.46.46,0,0,0,.282.323.6.6,0,0,0,.058.021.464.464,0,0,0,.469-.12,6.533,6.533,0,0,0,.431-.895,6.058,6.058,0,0,0,.328-.951A.463.463,0,0,0,27.007,19.75Zm-2.824-5.181c-.763-.329-.961-.4-1.167-.285l0,0a.541.541,0,0,0-.25.426c0,.277.229.384.625.547.11.046.244.1.406.163.007,0,.739.291.871.336a.446.446,0,0,0,.55-.274A.417.417,0,0,0,25,14.934c-.239-.117-.815-.363-.819-.365Zm5.057-1.2a.515.515,0,0,0,.257.236.345.345,0,0,0,.148.03c.114.006.38.022.847-1.332.211-.609.213-.825,0-.968a.521.521,0,0,0-.443-.023c-.255.106-.547.838-.7,1.267C29.156,13.132,29.186,13.268,29.24,13.365Zm4.049,5.805a.457.457,0,0,0,.353-.357c.076-.347-.133-.44-1.013-.83-.812-.352-1.056-.457-1.266-.239a.483.483,0,0,0-.165.426c.053.252.3.376,1,.664C33.09,19.205,33.228,19.185,33.289,19.171Zm-9.541-1.1c-.631.276-.936.456-.959.737A.408.408,0,0,0,23,19.19a.3.3,0,0,0,.058.031c.1.041.234.047.57-.056.013,0,1.328-.432,1.479-.8a.4.4,0,0,0-.234-.566C24.707,17.732,24.477,17.754,23.748,18.071ZM29.78,19.83a.4.4,0,0,0-.566.235c-.151.365.478,1.6.485,1.609.165.31.264.4.363.442l.055.017a.412.412,0,0,0,.429-.118c.182-.214.094-.557-.158-1.2C30.1,20.078,29.949,19.9,29.78,19.83Zm3.695-5.58h0c-.209-.164-.512-.116-1.258.2s-1.009.5-1.055.758a.412.412,0,0,0,.139.382.3.3,0,0,0,.1.068.791.791,0,0,0,.523-.049c.016-.005,1.595-.507,1.679-.92A.419.419,0,0,0,33.474,14.249Zm9.437,21-.215.142-.12.075c.108-.215.236-.464.3-.6a33.776,33.776,0,0,0,2.252-6.587,3.518,3.518,0,0,1,.788-1.755.9.9,0,0,1,.327-.181c-.057.436-.314,1.959-.558,3.207a18.934,18.934,0,0,1-1.3,4.344l-.037.085C44.158,34.429,44.158,34.429,42.911,35.249Zm2.711-1.865a1.187,1.187,0,0,1,1.281.787c.036-.1.077-.227.12-.356a24,24,0,0,0,1.164-6.7c.027-.671.073-1.514.106-1.825.049-.437.027-.465-.012-.514a.324.324,0,0,0-.348-.043,1.1,1.1,0,0,0-.507.6,14.742,14.742,0,0,0-.695,3.224,24.364,24.364,0,0,1-.972,4.215v0c-.091.244-.169.47-.217.623Zm4.22-9.145c-.171-.031-.241-.026-.449.269-.231.328-.293.782-.372,2.7A22.939,22.939,0,0,1,46.9,36.373a17.913,17.913,0,0,1-5.922,6.694c-.815.521-1.128.63-1.339.577a.314.314,0,0,1-.2-.149.4.4,0,0,1-.06-.315c.051-.2.274-.318.831-.7a17.719,17.719,0,0,0,5.762-6.213c.42-.848.43-1.506-.005-1.972-.08-.084-.113-.1-.165-.093a1.5,1.5,0,0,0-.508.354,60.456,60.456,0,0,1-5.99,4c-3.143,1.925-4.686,2.824-6.055,4.246a8.6,8.6,0,0,0-2.359,8.181c.1.187.674.17,1.041.171a16.785,16.785,0,0,0,12.392-3.325,19.3,19.3,0,0,0,5.784-8.1,23.206,23.206,0,0,0,1.354-7.9C51.44,29.072,50.266,24.337,49.843,24.24ZM12.108,33.984l-.037-.085a18.908,18.908,0,0,1-1.3-4.344c-.243-1.248-.5-2.772-.558-3.207a.891.891,0,0,1,.327.181,3.518,3.518,0,0,1,.788,1.755,33.776,33.776,0,0,0,2.252,6.587c.068.132.2.38.3.6l-.12-.075-.215-.142C12.3,34.429,12.3,34.429,12.108,33.984ZM10.919,33.4c-.049-.153-.126-.379-.217-.623v0a24.352,24.352,0,0,1-.972-4.215,14.731,14.731,0,0,0-.695-3.224,1.1,1.1,0,0,0-.507-.6.324.324,0,0,0-.348.043c-.039.05-.061.077-.012.514.034.312.079,1.154.106,1.825a23.989,23.989,0,0,0,1.164,6.7c.043.129.084.253.12.356a1.187,1.187,0,0,1,1.281-.787ZM5,31.827a23.2,23.2,0,0,0,1.354,7.9,19.3,19.3,0,0,0,5.784,8.1A16.784,16.784,0,0,0,24.53,51.147c.367,0,.935.015,1.041-.171A8.6,8.6,0,0,0,23.212,42.8c-1.37-1.423-2.913-2.321-6.055-4.246a60.458,60.458,0,0,1-5.99-4,1.518,1.518,0,0,0-.508-.354c-.052-.009-.085.009-.165.093-.435.467-.425,1.125-.005,1.972a17.714,17.714,0,0,0,5.762,6.213c.556.384.779.5.831.7a.4.4,0,0,1-.06.315.312.312,0,0,1-.2.149c-.211.054-.524-.056-1.339-.577a17.92,17.92,0,0,1-5.922-6.694,22.937,22.937,0,0,1-2.127-9.162c-.078-1.919-.141-2.373-.372-2.7-.207-.3-.277-.3-.449-.269C6.193,24.337,5.019,29.072,5,31.827Zm15.343-6.683a4.024,4.024,0,0,1-1.4,3,3.919,3.919,0,0,1,0-5.99A4.024,4.024,0,0,1,20.342,25.144Zm0,0a4.024,4.024,0,0,1-1.4,3,3.919,3.919,0,0,1,0-5.99A4.024,4.024,0,0,1,20.342,25.144Zm9.014,1.771a4.024,4.024,0,0,1-1.4,3,3.919,3.919,0,0,1,0-5.99A4.023,4.023,0,0,1,29.356,26.915Zm0,0a4.024,4.024,0,0,1-1.4,3,3.919,3.919,0,0,1,0-5.99A4.023,4.023,0,0,1,29.356,26.915Zm9.268-2.553a4.024,4.024,0,0,1-1.4,3,3.919,3.919,0,0,1,0-5.99A4.024,4.024,0,0,1,38.624,24.361Zm0,0a4.024,4.024,0,0,1-1.4,3,3.919,3.919,0,0,1,0-5.99A4.024,4.024,0,0,1,38.624,24.361Z" transform="translate(-188.419 187.984)" fill="#fff"></path></g></g></g><g id="Group_13409" data-name="Group 13409" transform="translate(4)"><text id="Healthcare" transform="translate(327 63)" fill="#fff" font-size="12" font-family="Roboto-Regular, Roboto"><tspan x="0" y="0">Healthcare</tspan></text><text id="Manufacturing" transform="translate(317 247)" fill="#fff" font-size="12" font-family="Roboto-Regular, Roboto"><tspan x="0" y="0">Manufacturing</tspan></text><g id="Group_13400" data-name="Group 13400" transform="translate(30 43)"><g id="Rectangle_4476" data-name="Rectangle 4476" transform="translate(293 31)" fill="none" stroke="#1c40ff" stroke-width="1"><rect width="65" height="65" rx="6" stroke="none"></rect><rect x="0.5" y="0.5" width="64" height="64" rx="5.5" fill="none"></rect></g><g id="Group_13399" data-name="Group 13399" transform="translate(845 -289)"><g id="Group_13398" data-name="Group 13398" transform="translate(-543 331)"><path id="Path_5602" data-name="Path 5602" d="M21.112,61.2H9.247A1.771,1.771,0,0,1,7.5,59.449v-1.6A1.771,1.771,0,0,1,9.247,56.1H21.112a1.771,1.771,0,0,1,1.747,1.747v1.6A1.771,1.771,0,0,1,21.112,61.2Z" transform="translate(-2.768 -17.409)" fill="#fff"></path><g id="Group_13396" data-name="Group 13396" transform="translate(0 13.14)"><g id="Group_13395" data-name="Group 13395"><path id="Path_5603" data-name="Path 5603" d="M19.781,45.095H7.551a2.855,2.855,0,0,0-1.31.291l-4-4.8A5.338,5.338,0,0,1,1,37.16V23.693A2.687,2.687,0,0,1,3.693,21a2.735,2.735,0,0,1,2.693,2.693V33.739a4.122,4.122,0,0,0,.218,1.31,2.88,2.88,0,0,1,.728-1.092,3.077,3.077,0,0,1,4.295.073l6.624,6.7a5.221,5.221,0,0,1,1.456,3.13Z" transform="translate(-1 -21)" fill="#fff"></path><path id="Path_5604" data-name="Path 5604" d="M57.981,23.693V37.16a5.146,5.146,0,0,1-1.237,3.349l-4,4.8a3.477,3.477,0,0,0-1.31-.291H39.2l.146-1.31a5.454,5.454,0,0,1,1.456-3.13l6.624-6.7a3.076,3.076,0,0,1,4.295-.073,2.236,2.236,0,0,1,.728,1.092,4.122,4.122,0,0,0,.218-1.31v-9.9a2.657,2.657,0,1,1,5.314,0Z" transform="translate(-11.393 -21)" fill="#fff"></path></g></g><path id="Path_5605" data-name="Path 5605" d="M39.147,61.2H51.012a1.771,1.771,0,0,0,1.747-1.747v-1.6A1.771,1.771,0,0,0,51.012,56.1H39.147A1.771,1.771,0,0,0,37.4,57.847v1.6A1.771,1.771,0,0,0,39.147,61.2Z" transform="translate(-10.903 -17.409)" fill="#fff"></path><g id="Group_13397" data-name="Group 13397" transform="translate(6.708 0)"><path id="Path_5606" data-name="Path 5606" d="M30.065,14.974c-.51.582-.946.364-1.456-.146-6.26-7.061-11.356.728-7.425,4.732l8.226,8.226,8.153-8.153C41.494,15.7,36.471,7.549,30.065,14.974Z" transform="translate(-12.825 -5.401)" fill="#fff"></path><path id="Path_5607" data-name="Path 5607" d="M33.5,3.059a10.291,10.291,0,0,0-6.7,2.475C17.192-2.837,4.017,10.994,13.48,20.457L26.292,33.268a.7.7,0,0,0,1.019,0L40.123,20.457C46.528,14.051,42.452,3.2,33.5,3.059ZM36.046,18.2l-8.735,8.662a.7.7,0,0,1-1.019,0L17.556,18.2c-5.314-5.314,1.82-15.141,9.172-7.061C34.226,3.132,41.287,12.886,36.046,18.2Z" transform="translate(-10.216 -2.949)" fill="#fff"></path></g></g></g></g><g id="Group_13407" data-name="Group 13407" transform="translate(30 43)"><g id="Rectangle_4479" data-name="Rectangle 4479" transform="translate(293 118)" fill="none" stroke="#1c40ff" stroke-width="1"><rect width="65" height="65" rx="6" stroke="none"></rect><rect x="0.5" y="0.5" width="64" height="64" rx="5.5" fill="none"></rect></g><g id="Group_13404" data-name="Group 13404" transform="translate(435.765 -69.22)"><path id="Path_5615" data-name="Path 5615" d="M43.17,41.421v1.438H2V41.421H43.17Zm-3.1-.915H41.7V27.113H40.068Zm-12.058,0V13.088H39.153V40.506Zm2.957-21.352a.457.457,0,0,0,.458.457h4.313a.457.457,0,0,0,.457-.457V16.507a.457.457,0,0,0-.457-.457H31.426a.457.457,0,0,0-.458.457Zm0,2.206a.457.457,0,0,0,.458.457h4.313a.457.457,0,0,0,0-.915H31.426a.457.457,0,0,0-.457.458ZM41.062,10.445H26.1v1.728H41.062ZM8.668,12.155H5.68l-.059,1.61h3.1Zm8.252,0H13.932l-.058,1.61h3.1Zm.091,2.525H13.841l-.368,10.236,3.832-2.053Zm-8.253,0H5.588L5.213,24.96,9.053,22.9ZM27.1,40.506H3.473V26.93l7.264-3.893v3.619a.457.457,0,0,0,.222.392.452.452,0,0,0,.451.01L17.96,23.55l.014-.007.942-.5v3.619a.457.457,0,0,0,.222.392.452.452,0,0,0,.451.01l7.505-4.021ZM10.686,30.181a.457.457,0,0,0-.457-.457H5.915a.457.457,0,0,0-.457.457v2.647a.458.458,0,0,0,.457.458h4.313a.457.457,0,0,0,.457-.458Zm7.212,0a.457.457,0,0,0-.457-.457H13.128a.457.457,0,0,0-.458.457v2.647a.458.458,0,0,0,.458.458h4.313a.458.458,0,0,0,.457-.458Zm7.213,0a.457.457,0,0,0-.457-.457H20.34a.457.457,0,0,0-.457.457v2.647a.457.457,0,0,0,.457.458h4.313a.458.458,0,0,0,.457-.458Zm-11.525,2.19h3.4V30.638h-3.4Zm7.212,0h3.4V30.638H20.8ZM35.281,16.965h-3.4V18.7h3.4ZM6.373,32.371h3.4V30.638h-3.4Zm.8-22.911a.928.928,0,1,0-.928-.928.928.928,0,0,0,.928.928Zm3.3-3.7A1.462,1.462,0,1,0,9.018,4.3,1.462,1.462,0,0,0,10.48,5.76Zm4.946,3.7a.928.928,0,1,0-.929-.928A.928.928,0,0,0,15.426,9.46Zm3.3-3.7A1.462,1.462,0,1,0,17.269,4.3,1.462,1.462,0,0,0,18.731,5.76Z" transform="translate(-132.765 196.384)" fill="#fff"></path></g></g></g><g id="Group_13411" data-name="Group 13411"><g id="Streamline-your-workflow" transform="translate(239.6 69)"><path id="Path_5596" data-name="Path 5596" d="M70.357,32.306A2.762,2.762,0,0,0,67.914,31H62.8v23.07h1.307a5.569,5.569,0,1,1,11.137,0h2.727V50.034H74.96a1.2,1.2,0,0,1-1.193-1.193V46.625a1.2,1.2,0,0,1,1.193-1.193h3.012v-1.25Zm-5.171,9.148V33.726h2.784a2.563,2.563,0,0,1,2.1,1.136l4.262,6.591Z" transform="translate(-22.625 -4.317)" fill="#fff"></path><path id="Path_5597" data-name="Path 5597" d="M83.8,58.284V60.5a.267.267,0,0,0,.284.284H87.1V58H84.084a.267.267,0,0,0-.284.284Z" transform="translate(-31.692 -15.975)" fill="#fff"></path><path id="Path_5598" data-name="Path 5598" d="M20.448,64.3a4.137,4.137,0,1,0,2.936,1.212A4.148,4.148,0,0,0,20.448,64.3Zm0,6.023a1.858,1.858,0,1,1,1.331-.544,1.875,1.875,0,0,1-1.331.544Z" transform="translate(-2.548 -18.696)" fill="#fff"></path><path id="Path_5599" data-name="Path 5599" d="M71.848,64.3a4.137,4.137,0,1,0,2.936,1.212A4.148,4.148,0,0,0,71.848,64.3Zm0,6.023a1.875,1.875,0,1,1,1.875-1.875,1.875,1.875,0,0,1-1.875,1.875Z" transform="translate(-24.741 -18.696)" fill="#fff"></path><path id="Path_5600" data-name="Path 5600" d="M37.277,21H11.934A1.529,1.529,0,0,0,10.4,22.534V49.013a.75.75,0,0,0,.739.739h1.193a5.569,5.569,0,1,1,11.137,0H38.811V22.534A1.529,1.529,0,0,0,37.277,21ZM25.969,38.1h0a2.125,2.125,0,0,1-2.955,0,2.091,2.091,0,0,1,2.955-2.955,2.029,2.029,0,0,1,0,2.955ZM27.5,34.24a4.182,4.182,0,0,0-5.853,0l-.852-.852a5.319,5.319,0,0,1,7.557,0Zm1.932-1.932a6.819,6.819,0,0,0-9.66,0l-.852-.852a8.131,8.131,0,0,1,11.421,0Zm1.932-1.932a9.535,9.535,0,0,0-13.524,0l-.852-.852a10.836,10.836,0,0,1,15.285,0Z" fill="#fff"></path><path id="Path_5601" data-name="Path 5601" d="M34,47.206a.886.886,0,1,0,1.25,0,.886.886,0,0,0-1.25,0Z" transform="translate(-10.078 -11.205)" fill="#fff"></path></g><text id="Logistics" transform="translate(249 63)" fill="#fff" font-size="12" font-family="Roboto-Regular, Roboto"><tspan x="0" y="0">Logistics</tspan></text><text id="Retail" transform="translate(258 247)" fill="#fff" font-size="12" font-family="Roboto-Regular, Roboto"><tspan x="0" y="0">Retail</tspan></text><g id="Rectangle_4475" data-name="Rectangle 4475" transform="translate(240 74)" fill="none" stroke="#1c40ff" stroke-width="1"><rect width="65" height="65" rx="6" stroke="none"></rect><rect x="0.5" y="0.5" width="64" height="64" rx="5.5" fill="none"></rect></g><g id="Group_13408" data-name="Group 13408" transform="translate(30 43)"><g id="Rectangle_4478" data-name="Rectangle 4478" transform="translate(210 118)" fill="none" stroke="#1c40ff" stroke-width="1"><rect width="65" height="65" rx="6" stroke="none"></rect><rect x="0.5" y="0.5" width="64" height="64" rx="5.5" fill="none"></rect></g><g id="Group_13403" data-name="Group 13403" transform="translate(313.79 -69.22)"><path id="Path_5616" data-name="Path 5616" d="M23.61,19.657A1.387,1.387,0,1,0,25,18.27,1.387,1.387,0,0,0,23.61,19.657Z" transform="translate(-100.724 191.936)" fill="#fff"></path><path id="Path_5617" data-name="Path 5617" d="M11.5,6.791a12.81,12.81,0,0,1,18.095,0,.667.667,0,0,0,.943-.943,14.14,14.14,0,0,0-19.973,0,.661.661,0,0,0,0,.936A.68.68,0,0,0,11.5,6.791Z" transform="translate(-96.272 197.501)" fill="#fff"></path><path id="Path_5618" data-name="Path 5618" d="M28.763,11.52a.66.66,0,0,0,.471-1.128,10.392,10.392,0,0,0-14.683,0,.662.662,0,0,0,.936.936,9.062,9.062,0,0,1,12.8,0A.657.657,0,0,0,28.763,11.52Z" transform="translate(-97.613 195.606)" fill="#fff"></path><path id="Path_5619" data-name="Path 5619" d="M27.45,16.05a.667.667,0,0,0,.471-1.135,6.6,6.6,0,0,0-4.7-1.945h0a6.6,6.6,0,0,0-4.7,1.945.664.664,0,0,0,.936.943,5.328,5.328,0,0,1,7.521,0A.68.68,0,0,0,27.45,16.05Z" transform="translate(-98.949 193.718)" fill="#fff"></path><path id="Path_5620" data-name="Path 5620" d="M40.81,39.76a3.2,3.2,0,0,0,3.2,3.2h9.326a3.2,3.2,0,0,0,3.2-3.2v-.81H40.81Z" transform="translate(-106.507 184.983)" fill="#fff"></path><path id="Path_5621" data-name="Path 5621" d="M29.664,42.41H12.758L7.328,20.818a.662.662,0,0,0-.644-.5H2.164a.664.664,0,1,0,0,1.328h4L11.6,43.24a.662.662,0,0,0,.644.5H29.664a1.444,1.444,0,1,1,0,2.887h-.345a3.352,3.352,0,0,1,0,1.328h.345a2.771,2.771,0,1,0,0-5.543Z" transform="translate(-93.29 191.247)" fill="#fff"></path><path id="Path_5622" data-name="Path 5622" d="M30.36,59.95a3.352,3.352,0,0,1,0,1.328h1.719a3.352,3.352,0,0,1,0-1.328Z" transform="translate(-102.994 177.922)" fill="#fff"></path><path id="Path_5623" data-name="Path 5623" d="M17.7,59.95a.664.664,0,1,0,0,1.328h1.235a3.352,3.352,0,0,1,0-1.328Z" transform="translate(-98.515 177.922)" fill="#fff"></path><path id="Path_5624" data-name="Path 5624" d="M24.01,57.62a2.21,2.21,0,1,0,2.21,2.21A2.21,2.21,0,0,0,24.01,57.62Z" transform="translate(-100.116 178.706)" fill="#fff"></path><circle id="Ellipse_39" data-name="Ellipse 39" cx="2.21" cy="2.21" r="2.21" transform="translate(-69.653 236.326)" fill="#fff"></circle><path id="Path_5625" data-name="Path 5625" d="M17.394,41.16H33.663L33.955,40a4.532,4.532,0,0,1-3.551-3.91h-.033V26.51H13.71Z" transform="translate(-97.396 189.166)" fill="#fff"></path><path id="Path_5626" data-name="Path 5626" d="M54.49,16.839v1.918a.664.664,0,1,1-1.328,0v-4.52a4.487,4.487,0,0,0-8.974,0v2.6H40.81V27.8H56.535V16.839Zm-7.647,1.918a.664.664,0,1,1-1.328,0v-4.52a3.16,3.16,0,0,1,6.319,0v2.6H46.844Z" transform="translate(-106.507 194.801)" fill="#fff"></path></g></g></g></g><g id="Rectangle_4481" data-name="Rectangle 4481" transform="translate(20 28)" fill="none" stroke="#fff" stroke-width="1" stroke-dasharray="6 6"><rect width="479" height="244" rx="6" stroke="none"></rect><rect x="0.5" y="0.5" width="478" height="243" rx="5.5" fill="none"></rect></g><text id="Internet_of_Things_IoT_" data-name="Internet of Things (IoT)" transform="translate(118 158)" fill="#fff" font-size="20" font-family="OpenSans-Semibold, Open Sans" font-weight="600"><tspan x="-85" y="0">Internet of Things</tspan><tspan x="-21" y="27">(IoT)</tspan></text></g></svg> 